<?xml version="1.0" encoding="utf-8"?>
<!-- Generator: Adobe Illustrator 23.0.2, SVG Export Plug-In . SVG Version: 6.00 Build 0)  -->
<svg version="1.1" id="Layer_1" xmlns="http://www.w3.org/2000/svg" xmlns:xlink="http://www.w3.org/1999/xlink" x="0px" y="0px"
	 viewBox="0 0 300 50" style="enable-background:new 0 0 300 50;" xml:space="preserve">
<style type="text/css">
	.st0{display:none;}
	.st1{display:inline;}
	.st2{fill:#8B734A;}
	.st3{fill:#FFFFFF;}
	.st4{clip-path:url(#SVGID_2_);}
	.st5{clip-path:url(#SVGID_4_);fill:#8C734B;}
	.st6{clip-path:url(#SVGID_6_);fill:#8C734B;}
	.st7{clip-path:url(#SVGID_8_);fill:#8C734B;}
	.st8{clip-path:url(#SVGID_10_);fill:#8C734B;}
	.st9{clip-path:url(#SVGID_12_);fill:#8C734B;}
	.st10{clip-path:url(#SVGID_14_);fill:#8C734B;}
	.st11{clip-path:url(#SVGID_16_);fill:#8C734B;}
	.st12{clip-path:url(#SVGID_18_);fill:#8C734B;}
	.st13{clip-path:url(#SVGID_20_);fill:#8C734B;}
	.st14{clip-path:url(#SVGID_22_);fill:#8C734B;}
	.st15{clip-path:url(#SVGID_24_);fill:#8C734B;}
	.st16{clip-path:url(#SVGID_26_);fill:#8C734B;}
	.st17{clip-path:url(#SVGID_28_);fill:#8C734B;}
	.st18{clip-path:url(#SVGID_30_);fill:#8C734B;}
	.st19{clip-path:url(#SVGID_32_);fill:#8C734B;}
	.st20{clip-path:url(#SVGID_34_);}
	.st21{clip-path:url(#SVGID_36_);fill:#8C734B;}
	.st22{clip-path:url(#SVGID_38_);fill:#8C734B;}
	.st23{clip-path:url(#SVGID_40_);fill:#8C734B;}
	.st24{clip-path:url(#SVGID_42_);fill:#8C734B;}
	.st25{clip-path:url(#SVGID_44_);fill:#8C734B;}
	.st26{clip-path:url(#SVGID_46_);fill:#8C734B;}
	.st27{clip-path:url(#SVGID_48_);fill:#8C734B;}
	.st28{clip-path:url(#SVGID_50_);fill:#8C734B;}
	.st29{clip-path:url(#SVGID_52_);fill:#8C734B;}
	.st30{clip-path:url(#SVGID_54_);fill:#8C734B;}
	.st31{clip-path:url(#SVGID_56_);fill:#8C734B;}
	.st32{clip-path:url(#SVGID_58_);fill:#8C734B;}
	.st33{clip-path:url(#SVGID_60_);fill:#8C734B;}
	.st34{clip-path:url(#SVGID_62_);fill:#8C734B;}
	.st35{clip-path:url(#SVGID_64_);fill:#8C734B;}
	.st36{fill:#020202;}
	.st37{clip-path:url(#SVGID_66_);fill:#151011;}
	.st38{clip-path:url(#SVGID_68_);}
	.st39{clip-path:url(#SVGID_70_);fill:#151011;}
	.st40{clip-path:url(#SVGID_72_);fill:#151011;}
	.st41{clip-path:url(#SVGID_74_);fill:#151011;}
	.st42{clip-path:url(#SVGID_76_);fill:#151011;}
	.st43{clip-path:url(#SVGID_78_);fill:#151011;}
	.st44{clip-path:url(#SVGID_80_);fill:#151011;}
</style>
<g class="st0">
	<g class="st1">
		<path class="st2" d="M93.8,15.5L93.8,15.5c0-1.9,1.4-3.6,3.5-3.6c1.2,0,1.9,0.3,2.6,0.9l-0.5,0.6c-0.5-0.5-1.1-0.8-2.1-0.8
			c-1.6,0-2.7,1.3-2.7,2.9l0,0c0,1.7,1.1,2.9,2.8,2.9c0.8,0,1.5-0.3,2-0.7V16h-2.1v-0.7h2.9V18c-0.7,0.6-1.6,1.1-2.8,1.1
			C95.2,19,93.8,17.5,93.8,15.5z"/>
		<path class="st2" d="M102,11.9h5.1v0.7h-4.3V15h3.8v0.7h-3.8v2.5h4.3v0.7H102V11.9z"/>
		<path class="st2" d="M108.7,11.9h0.7l4.4,5.6v-5.6h0.8v7H114l-4.5-5.7v5.7h-0.8V11.9z"/>
		<path class="st2" d="M118.4,12.7h-2.3V12h5.5v0.7h-2.3V19h-0.8L118.4,12.7L118.4,12.7z"/>
		<path class="st2" d="M123.1,11.9h0.8v6.3h3.9v0.7h-4.7C123.1,18.9,123.1,11.9,123.1,11.9z"/>
		<path class="st2" d="M130.2,16.2l-2.9-4.2h1l2.4,3.5l2.4-3.5h0.9l-2.9,4.2V19h-0.8L130.2,16.2L130.2,16.2z"/>
		<path class="st2" d="M138.1,11.9h5.1v0.7h-4.3V15h3.8v0.7h-3.8v2.5h4.3v0.7h-5.1V11.9z"/>
		<path class="st2" d="M147,15.4l-2.6-3.4h0.9l2.1,2.9l2.1-2.9h0.9l-2.6,3.4l2.7,3.6h-0.9l-2.2-3l-2.2,3h-0.9L147,15.4z"/>
		<path class="st2" d="M152.1,11.9h5v0.7h-4.2v2.5h3.8v0.7h-3.8v3.1h-0.8V11.9z"/>
		<path class="st2" d="M158.2,15.5L158.2,15.5c0-2,1.4-3.6,3.6-3.6s3.6,1.7,3.6,3.6l0,0c0,1.9-1.4,3.6-3.6,3.6
			S158.2,17.4,158.2,15.5z M164.5,15.5L164.5,15.5c0-1.6-1.2-2.9-2.8-2.9s-2.7,1.3-2.7,2.9l0,0c0,1.6,1.2,2.9,2.8,2.9
			C163.4,18.3,164.5,17,164.5,15.5z"/>
		<path class="st2" d="M167,11.9h0.8v6.3h3.9v0.7H167V11.9z"/>
		<path class="st2" d="M173.2,11.9h0.8v7h-0.8V11.9z"/>
		<path class="st2" d="M178.7,11.9h0.7l3.2,7.1h-0.9l-0.8-1.9h-3.8l-0.8,1.9h-0.8L178.7,11.9z M180.6,16.4l-1.6-3.6l-1.6,3.6H180.6z
			"/>
		<path class="st2" d="M184.9,12.7h-2.4V12h5.5v0.7h-2.4V19h-0.8L184.9,12.7L184.9,12.7z"/>
		<path class="st2" d="M189.6,11.9h5.1v0.7h-4.3V15h3.8v0.7h-3.8v2.5h4.3v0.7h-5.1V11.9z"/>
		<path class="st2" d="M201.1,12.7h-2.4V12h5.5v0.7h-2.4V19H201L201.1,12.7L201.1,12.7z"/>
		<path class="st2" d="M205,15.5L205,15.5c0-2,1.4-3.6,3.6-3.6s3.6,1.7,3.6,3.6l0,0c0,1.9-1.4,3.6-3.6,3.6S205,17.4,205,15.5z
			 M211.3,15.5L211.3,15.5c0-1.6-1.2-2.9-2.8-2.9s-2.7,1.3-2.7,2.9l0,0c0,1.6,1.2,2.9,2.8,2.9C210.1,18.3,211.3,17,211.3,15.5z"/>
		<path class="st2" d="M100.3,22.9h3c0.9,0,1.6,0.3,2,0.7c0.3,0.3,0.5,0.8,0.5,1.4l0,0c0,1.2-0.8,1.8-1.9,2l2.2,2.9h-1l-2-2.7l0,0
			h-2v2.7h-0.8C100.3,29.9,100.3,22.9,100.3,22.9z M103.3,26.5c1.1,0,1.8-0.5,1.8-1.4l0,0c0-0.9-0.7-1.4-1.8-1.4h-2.2v2.8H103.3z"/>
		<path class="st2" d="M107.6,22.9h5.1v0.7h-4.3V26h3.8v0.7h-3.8v2.5h4.3v0.7h-5.1V22.9z"/>
		<path class="st2" d="M113.7,22.9h0.9l2.5,6l2.5-6h0.8l-3,7.1h-0.7L113.7,22.9z"/>
		<path class="st2" d="M121.8,22.9h5.1v0.7h-4.3V26h3.8v0.7h-3.8v2.5h4.3v0.7h-5.1V22.9z"/>
		<path class="st2" d="M131,22.9h0.7l3.2,7H134l-0.8-1.9h-3.8l-0.8,1.9h-0.8L131,22.9z M133,27.4l-1.6-3.6l-1.6,3.6H133z"/>
		<path class="st2" d="M136.4,22.9h0.8v6.3h3.9v0.7h-4.7V22.9z"/>
		<path class="st2" d="M145.1,28.9l0.5-0.6c0.7,0.7,1.4,1,2.4,1c0.9,0,1.6-0.5,1.6-1.2l0,0c0-0.6-0.4-1-1.8-1.3
			c-1.6-0.4-2.4-0.9-2.4-2l0,0c0-1.1,1-1.9,2.3-1.9c1,0,1.8,0.3,2.5,0.9l-0.5,0.6c-0.6-0.5-1.3-0.8-2-0.8c-0.9,0-1.5,0.5-1.5,1.1
			l0,0c0,0.7,0.4,1,1.9,1.4c1.6,0.3,2.3,0.9,2.3,2l0,0c0,1.2-1,2-2.4,2C146.8,30,145.9,29.7,145.1,28.9z"/>
		<path class="st2" d="M151.9,22.9h0.8l2.6,3.8l2.6-3.8h0.8v7h-0.8v-5.7l-2.6,3.8l0,0l-2.6-3.7V30H152L151.9,22.9L151.9,22.9z"/>
		<path class="st2" d="M160.3,26.5L160.3,26.5c0-2,1.4-3.6,3.6-3.6s3.6,1.7,3.6,3.6l0,0c0,1.9-1.4,3.6-3.6,3.6
			S160.3,28.4,160.3,26.5z M166.6,26.5L166.6,26.5c0-1.6-1.2-2.9-2.8-2.9s-2.7,1.3-2.7,2.9l0,0c0,1.6,1.2,2.9,2.8,2.9
			C165.5,29.3,166.6,28,166.6,26.5z"/>
		<path class="st2" d="M168.8,26.5L168.8,26.5c0-2,1.4-3.6,3.6-3.6s3.6,1.7,3.6,3.6l0,0c0,1.9-1.4,3.6-3.6,3.6
			S168.8,28.4,168.8,26.5z M175.1,26.5L175.1,26.5c0-1.6-1.2-2.9-2.8-2.9s-2.7,1.3-2.7,2.9l0,0c0,1.6,1.2,2.9,2.8,2.9
			C174,29.3,175.1,28,175.1,26.5z"/>
		<path class="st2" d="M179,23.7h-2.4V23h5.5v0.7h-2.4V30H179V23.7L179,23.7z"/>
		<path class="st2" d="M183.6,22.9h0.8V26h4v-3.1h0.8v7h-0.8v-3.1h-4v3.1h-0.8V22.9z"/>
		<path class="st2" d="M191.2,22.9h5.1v0.7H192V26h3.8v0.7H192v2.5h4.3v0.7h-5.1V22.9z"/>
		<path class="st2" d="M197.9,22.9h3c0.9,0,1.6,0.3,2,0.7c0.3,0.3,0.5,0.8,0.5,1.4l0,0c0,1.2-0.8,1.8-1.9,2l2.1,2.9h-1l-2-2.7l0,0
			h-2v2.7h-0.8L197.9,22.9L197.9,22.9z M200.9,26.5c1.1,0,1.8-0.5,1.8-1.4l0,0c0-0.9-0.7-1.4-1.8-1.4h-2.2v2.8H200.9z"/>
		<path class="st2" d="M204.6,30.8c0.5-0.2,0.7-0.4,0.7-0.9h-0.4v-1h0.9v0.9c0,0.8-0.4,1.2-1.1,1.4L204.6,30.8z"/>
		<path class="st2" d="M89.9,38.2L87,33.9h1l2.4,3.5l2.4-3.5h0.9l-2.9,4.2v2.8H90L89.9,38.2L89.9,38.2z"/>
		<path class="st2" d="M94,37.5L94,37.5c0-2,1.4-3.6,3.6-3.6s3.6,1.7,3.6,3.6l0,0c0,1.9-1.4,3.6-3.6,3.6S94,39.4,94,37.5z
			 M100.3,37.5L100.3,37.5c0-1.6-1.2-2.9-2.8-2.9s-2.7,1.3-2.7,2.9l0,0c0,1.6,1.2,2.9,2.8,2.9S100.3,39,100.3,37.5z"/>
		<path class="st2" d="M102.7,38v-4.1h0.8v4c0,1.5,0.8,2.4,2.1,2.4c1.3,0,2.1-0.8,2.1-2.3v-4.1h0.8v4c0,2-1.2,3.1-2.9,3.1
			C103.9,41,102.7,40,102.7,38z"/>
		<path class="st2" d="M110.4,33.9h0.7l4.4,5.6v-5.6h0.8v7h-0.6l-4.5-5.7v5.7h-0.8V33.9z"/>
		<path class="st2" d="M118,37.5L118,37.5c0-1.9,1.4-3.6,3.5-3.6c1.2,0,1.9,0.3,2.6,0.9l-0.5,0.6c-0.5-0.5-1.1-0.8-2.1-0.8
			c-1.6,0-2.7,1.3-2.7,2.9l0,0c0,1.7,1.1,2.9,2.8,2.9c0.8,0,1.5-0.3,2-0.7V38h-2.1v-0.7h2.9V40c-0.7,0.6-1.6,1.1-2.8,1.1
			C119.3,41,118,39.5,118,37.5z"/>
		<path class="st2" d="M126.1,33.9h5.1v0.7h-4.3V37h3.8v0.7h-3.8v2.5h4.3v0.7h-5.1V33.9z"/>
		<path class="st2" d="M132.8,33.9h3c0.9,0,1.6,0.3,2,0.7c0.3,0.3,0.5,0.8,0.5,1.4l0,0c0,1.2-0.8,1.8-1.9,2l2.1,2.9h-1l-2-2.7l0,0
			h-2v2.7h-0.8L132.8,33.9L132.8,33.9z M135.8,37.5c1.1,0,1.8-0.5,1.8-1.4l0,0c0-0.9-0.7-1.4-1.8-1.4h-2.2v2.8
			C133.6,37.5,135.8,37.5,135.8,37.5z"/>
		<path class="st2" d="M139.7,37.5h2.8v0.8h-2.8V37.5z"/>
		<path class="st2" d="M144.1,33.9h0.8v6.3h3.9v0.7h-4.7V33.9z"/>
		<path class="st2" d="M149.6,37.5L149.6,37.5c0-2,1.4-3.6,3.6-3.6s3.6,1.7,3.6,3.6l0,0c0,1.9-1.4,3.6-3.6,3.6
			S149.6,39.4,149.6,37.5z M155.9,37.5L155.9,37.5c0-1.6-1.2-2.9-2.8-2.9s-2.7,1.3-2.7,2.9l0,0c0,1.6,1.2,2.9,2.8,2.9
			C154.8,40.3,155.9,39,155.9,37.5z"/>
		<path class="st2" d="M158.1,37.5L158.1,37.5c0-2,1.4-3.6,3.6-3.6s3.6,1.7,3.6,3.6l0,0c0,1.9-1.4,3.6-3.6,3.6
			S158.1,39.4,158.1,37.5z M164.4,37.5L164.4,37.5c0-1.6-1.2-2.9-2.8-2.9s-2.7,1.3-2.7,2.9l0,0c0,1.6,1.2,2.9,2.8,2.9
			C163.3,40.3,164.4,39,164.4,37.5z"/>
		<path class="st2" d="M166.9,33.9h0.8v4.2l4-4.2h1l-3,3.1l3.1,3.9h-1l-2.7-3.4l-1.5,1.5v1.9h-0.8L166.9,33.9L166.9,33.9z"/>
		<path class="st2" d="M174.2,33.9h0.8v7h-0.8V33.9z"/>
		<path class="st2" d="M177,33.9h0.7l4.4,5.6v-5.6h0.8v7h-0.6l-4.5-5.7v5.7H177V33.9z"/>
		<path class="st2" d="M184.6,37.5L184.6,37.5c0-1.9,1.4-3.6,3.5-3.6c1.2,0,1.9,0.3,2.6,0.9l-0.5,0.6c-0.5-0.5-1.1-0.8-2.1-0.8
			c-1.6,0-2.7,1.3-2.7,2.9l0,0c0,1.7,1.1,2.9,2.8,2.9c0.8,0,1.5-0.3,2-0.7V38h-2.1v-0.7h2.9V40c-0.6,0.6-1.6,1.1-2.8,1.1
			C186,41,184.6,39.5,184.6,37.5z"/>
		<path class="st2" d="M195.3,39.9l0.5-0.6c0.7,0.7,1.4,1,2.4,1c0.9,0,1.6-0.5,1.6-1.2l0,0c0-0.7-0.4-1-1.8-1.3
			c-1.6-0.3-2.4-0.9-2.4-2l0,0c0-1.1,1-1.9,2.3-1.9c1,0,1.8,0.3,2.5,0.9l-0.5,0.6c-0.6-0.5-1.3-0.8-2-0.8c-0.9,0-1.5,0.5-1.5,1.1
			l0,0c0,0.7,0.4,1,1.9,1.4c1.6,0.3,2.3,0.9,2.3,2l0,0c0,1.2-1,2-2.4,2C197.1,41,196.2,40.7,195.3,39.9z"/>
		<path class="st2" d="M202.2,33.9h0.8v4.2l4-4.2h1l-3,3.1l3.1,3.9h-1l-2.7-3.4l-1.5,1.5v1.9h-0.8L202.2,33.9L202.2,33.9z"/>
		<path class="st2" d="M209.4,33.9h0.8v7h-0.8V33.9z"/>
		<path class="st2" d="M212.3,33.9h0.7l4.4,5.6v-5.6h0.8v7h-0.6l-4.5-5.7v5.7h-0.8L212.3,33.9L212.3,33.9z"/>
	</g>
	<g class="st1">
		<path class="st2" d="M227.4,9.8h0.6v3.1l3-3.1h0.8l-2.2,2.3l2.3,2.9h-0.7l-2-2.5l-1.1,1.1V15h-0.6V9.8H227.4z"/>
		<path class="st2" d="M232.1,12.4L232.1,12.4c0-1.5,1.1-2.7,2.6-2.7s2.6,1.2,2.6,2.7l0,0c0,1.4-1.1,2.7-2.6,2.7
			S232.1,13.9,232.1,12.4z M236.8,12.4L236.8,12.4c0-1.2-0.9-2.2-2-2.2s-2,0.9-2,2.1l0,0c0,1.2,0.9,2.1,2,2.1
			C236,14.6,236.8,13.6,236.8,12.4z"/>
		<path class="st2" d="M238.7,9.8h0.6l3.3,4.1V9.8h0.6V15h-0.5l-3.3-4.2V15h-0.6V9.8H238.7z"/>
		<path class="st2" d="M244,14.2l0.4-0.4c0.3,0.5,0.6,0.7,1.2,0.7c0.6,0,1-0.4,1-1.2V9.8h0.6v3.5c0,0.6-0.2,1.1-0.5,1.4
			c-0.3,0.3-0.7,0.4-1.1,0.4C244.8,15.1,244.3,14.7,244,14.2z"/>
		<path class="st2" d="M250.3,9.8h0.6l2.4,5.2h-0.6l-0.6-1.4h-2.8l-0.6,1.4H248L250.3,9.8z M251.8,13.1l-1.2-2.6l-1.2,2.6H251.8z"/>
		<path class="st2" d="M253.7,12.4L253.7,12.4c0-1.5,1.1-2.7,2.6-2.7c0.9,0,1.5,0.3,2,0.8L258,11c-0.4-0.4-0.9-0.7-1.6-0.7
			c-1.1,0-2,0.9-2,2.1l0,0c0,1.2,0.9,2.1,2,2.1c0.7,0,1.2-0.3,1.7-0.8l0.4,0.4c-0.5,0.6-1.1,0.9-2.1,0.9
			C254.8,15.1,253.7,13.9,253.7,12.4z"/>
		<path class="st2" d="M261.6,9.8h3.7v0.5h-3.1v1.9h2.8v0.5h-2.8V15h-0.6V9.8z"/>
		<path class="st2" d="M267.8,9.8h0.5l2.4,5.2h-0.6l-0.6-1.4h-2.8L266,15h-0.6L267.8,9.8z M269.3,13.1l-1.2-2.6l-1.2,2.6H269.3z"/>
		<path class="st2" d="M271.2,12.4L271.2,12.4c0-1.5,1.1-2.7,2.6-2.7c0.9,0,1.5,0.3,2,0.8l-0.4,0.4c-0.4-0.4-0.9-0.7-1.6-0.7
			c-1.1,0-2,0.9-2,2.1l0,0c0,1.2,0.9,2.1,2,2.1c0.7,0,1.2-0.3,1.7-0.8l0.4,0.4c-0.5,0.6-1.1,0.9-2.1,0.9
			C272.3,15.1,271.2,13.9,271.2,12.4z"/>
		<path class="st2" d="M277,9.8h0.6V15H277V9.8z"/>
		<path class="st2" d="M281,9.8h0.5l2.4,5.2h-0.6l-0.6-1.4h-2.8l-0.6,1.4h-0.6L281,9.8z M282.4,13.1l-1.2-2.6l-1.2,2.6H282.4z"/>
		<path class="st2" d="M284.9,9.8h0.6v4.6h2.9V15h-3.5V9.8z"/>
		<path class="st2" d="M234.6,22.4L235,22c0.5,0.5,1.1,0.7,1.8,0.7s1.1-0.4,1.1-0.9l0,0c0-0.5-0.3-0.8-1.4-1
			c-1.2-0.3-1.7-0.6-1.7-1.5l0,0c0-0.8,0.7-1.4,1.7-1.4c0.8,0,1.3,0.2,1.8,0.6L238,19c-0.5-0.4-1-0.6-1.5-0.6
			c-0.7,0-1.1,0.4-1.1,0.8l0,0c0,0.5,0.3,0.8,1.4,1c1.2,0.2,1.7,0.7,1.7,1.5l0,0c0,0.9-0.7,1.5-1.8,1.5
			C235.9,23.2,235.2,22.9,234.6,22.4z"/>
		<path class="st2" d="M239.7,18h1.9c1.2,0,1.9,0.6,1.9,1.6l0,0c0,1.1-0.9,1.7-2,1.7h-1.3v1.8h-0.6L239.7,18L239.7,18z M241.5,20.8
			c0.9,0,1.4-0.5,1.4-1.1l0,0c0-0.7-0.6-1.1-1.4-1.1h-1.3v2.3L241.5,20.8L241.5,20.8z"/>
		<path class="st2" d="M244.4,20.6L244.4,20.6c0-1.5,1.1-2.7,2.6-2.7s2.6,1.2,2.6,2.7l0,0c0,1.4-1.1,2.7-2.6,2.7
			S244.4,22,244.4,20.6z M249.1,20.6L249.1,20.6c0-1.2-0.9-2.2-2-2.2s-2,1-2,2.1l0,0c0,1.2,0.9,2.1,2,2.1
			C248.2,22.7,249.1,21.7,249.1,20.6z"/>
		<path class="st2" d="M250.9,18h0.6l3.3,4.1V18h0.6v5.2h-0.5l-3.3-4.2v4.2H251V18H250.9z"/>
		<path class="st2" d="M256.5,20.6L256.5,20.6c0-1.4,1-2.7,2.6-2.7c0.9,0,1.4,0.2,1.9,0.7l-0.4,0.4c-0.4-0.4-0.8-0.6-1.6-0.6
			c-1.1,0-2,1-2,2.1l0,0c0,1.2,0.8,2.1,2,2.1c0.6,0,1.1-0.2,1.5-0.5v-1.3h-1.6v-0.5h2.1v2.1c-0.5,0.4-1.2,0.8-2.1,0.8
			C257.5,23.2,256.5,22,256.5,20.6z"/>
		<path class="st2" d="M262.5,18h3.8v0.5h-3.2v1.8h2.8v0.5h-2.8v1.8h3.2v0.5h-3.8V18C262.6,18,262.5,18,262.5,18z"/>
		<path class="st2" d="M269.4,22.4l0.4-0.4c0.5,0.5,1.1,0.7,1.8,0.7c0.7,0,1.1-0.4,1.1-0.9l0,0c0-0.5-0.3-0.8-1.4-1
			c-1.2-0.3-1.7-0.6-1.7-1.5l0,0c0-0.8,0.7-1.4,1.7-1.4c0.8,0,1.3,0.2,1.8,0.6l-0.3,0.5c-0.5-0.4-1-0.6-1.5-0.6
			c-0.7,0-1.1,0.4-1.1,0.8l0,0c0,0.5,0.3,0.8,1.4,1c1.2,0.2,1.7,0.7,1.7,1.5l0,0c0,0.9-0.7,1.5-1.8,1.5
			C270.7,23.2,270,22.9,269.4,22.4z"/>
		<path class="st2" d="M274.5,18h3.8v0.5H275v1.8h2.8v0.5H275v1.8h3.2v0.5h-3.8L274.5,18L274.5,18z"/>
		<path class="st2" d="M280.8,18.5H279V18h4.1v0.5h-1.7v4.6h-0.6V18.5L280.8,18.5z"/>
	</g>
	<g class="st1">
		<path class="st2" d="M283.9,42.9h-50.2V28.2h50.2V42.9z"/>
		<g>
			<path class="st3" d="M240.3,32.4h2.2c0.6,0,1.1,0.2,1.4,0.5c0.2,0.2,0.3,0.5,0.3,0.8l0,0c0,0.7-0.4,1-0.8,1.2
				c0.6,0.2,1.1,0.5,1.1,1.2l0,0c0,0.9-0.8,1.4-1.9,1.4h-2.3V32.4z M242.4,34.7c0.7,0,1.2-0.3,1.2-0.9l0,0c0-0.5-0.4-0.8-1.1-0.8
				h-1.6v1.8L242.4,34.7L242.4,34.7z M242.6,37c0.8,0,1.3-0.3,1.3-0.9l0,0c0-0.6-0.5-0.9-1.4-0.9h-1.6V37H242.6L242.6,37z"/>
			<path class="st3" d="M245.6,35.4v-3h0.6v3c0,1.1,0.6,1.8,1.6,1.8s1.6-0.6,1.6-1.7v-3h0.6v3c0,1.5-0.9,2.3-2.2,2.3
				C246.4,37.7,245.6,36.9,245.6,35.4z"/>
			<path class="st3" d="M252.9,35.5l-2.1-3.1h0.7l1.8,2.6l1.8-2.6h0.7l-2.1,3.1v2.1h-0.6L252.9,35.5L252.9,35.5z"/>
			<path class="st3" d="M258.8,32.4h0.5l3.3,4.2v-4.2h0.6v5.2h-0.5l-3.3-4.2v4.2h-0.6V32.4z"/>
			<path class="st3" d="M264.4,35L264.4,35c0-1.4,1.1-2.7,2.6-2.7s2.6,1.2,2.6,2.7l0,0c0,1.4-1.1,2.7-2.6,2.7S264.4,36.4,264.4,35z
				 M269.1,35L269.1,35c0-1.2-0.9-2.2-2-2.2c-1.2,0-2,1-2,2.1l0,0c0,1.2,0.9,2.1,2,2.1C268.2,37.1,269.1,36.2,269.1,35z"/>
			<path class="st3" d="M270.2,32.4h0.6l1.5,4.3l1.4-4.3h0.5l1.4,4.3l1.5-4.3h0.6l-1.9,5.2h-0.5l-1.4-4.2l-1.4,4.2H272L270.2,32.4z"
				/>
		</g>
	</g>
	<g class="st1">
		<g>
			<g>
				<g>
					<g>
						<g>
							<g>
								<g>
									<defs>
										<rect id="SVGID_1_" x="4.1" y="-4.4" width="76.2" height="58.9"/>
									</defs>
									<clipPath id="SVGID_2_">
										<use xlink:href="#SVGID_1_"  style="overflow:visible;"/>
									</clipPath>
									<g class="st4">
										<g>
											<g>
												<g>
													<g>
														<g>
															<g>
																<defs>
																	<rect id="SVGID_3_" x="4.1" y="-4.4" width="76.2" height="58.9"/>
																</defs>
																<clipPath id="SVGID_4_">
																	<use xlink:href="#SVGID_3_"  style="overflow:visible;"/>
																</clipPath>
																<path class="st5" d="M17.4,21v4.2c0,1,0.3,1.9,0.9,2.4s1.3,0.9,2.2,0.9s1.7-0.3,2.2-0.9c0.6-0.6,0.9-1.5,0.9-2.6v-4
																	h-0.5v4.1c0,1-0.2,1.7-0.7,2.2s-1.1,0.8-1.9,0.8s-1.4-0.3-1.9-0.8s-0.7-1.2-0.7-2.1V21H17.4z"/>
															</g>
														</g>
													</g>
												</g>
											</g>
										</g>
										<g>
											<g>
												<g>
													<g>
														<g>
															<g>
																<defs>
																	<rect id="SVGID_5_" x="4.1" y="-4.4" width="76.2" height="58.9"/>
																</defs>
																<clipPath id="SVGID_6_">
																	<use xlink:href="#SVGID_5_"  style="overflow:visible;"/>
																</clipPath>
																<polygon class="st6" points="37,28.4 37.5,28.4 37.5,21 37,21 34.1,24.5 31.2,21 30.7,21 30.7,28.4 31.2,28.4 
																	31.2,21.7 34.1,25.3 37,21.7 																"/>
															</g>
														</g>
													</g>
												</g>
											</g>
										</g>
										<g>
											<g>
												<g>
													<g>
														<g>
															<g>
																<defs>
																	<rect id="SVGID_7_" x="4.1" y="-4.4" width="76.2" height="58.9"/>
																</defs>
																<clipPath id="SVGID_8_">
																	<use xlink:href="#SVGID_7_"  style="overflow:visible;"/>
																</clipPath>
																<polygon class="st7" points="52.5,28.4 54.9,28.4 54.9,28 53,28 53,24.9 54.7,24.9 54.7,24.5 53,24.5 53,21.4 
																	54.8,21.4 54.8,21 52.5,21 																"/>
															</g>
														</g>
													</g>
												</g>
											</g>
										</g>
										<g>
											<g>
												<g>
													<g>
														<g>
															<g>
																<defs>
																	<rect id="SVGID_9_" x="4.1" y="-4.4" width="76.2" height="58.9"/>
																</defs>
																<clipPath id="SVGID_10_">
																	<use xlink:href="#SVGID_9_"  style="overflow:visible;"/>
																</clipPath>
																<polygon class="st8" points="73.8,28.4 76.2,28.4 76.2,28 74.3,28 74.3,24.9 75.9,24.9 75.9,24.5 74.3,24.5 
																	74.3,21.4 76.1,21.4 76.1,21 73.8,21 																"/>
															</g>
														</g>
													</g>
												</g>
											</g>
										</g>
										<g>
											<g>
												<g>
													<g>
														<g>
															<g>
																<defs>
																	<rect id="SVGID_11_" x="4.1" y="-4.4" width="76.2" height="58.9"/>
																</defs>
																<clipPath id="SVGID_12_">
																	<use xlink:href="#SVGID_11_"  style="overflow:visible;"/>
																</clipPath>
																<path class="st9" d="M67.3,28.4h0.6l-1.7-2.5c-0.4-0.6-0.7-1-1-1.1h-0.1h0.1c0.9-0.3,1.4-0.9,1.4-1.8
																	c0-0.6-0.2-1-0.6-1.4c-0.4-0.3-1-0.5-1.8-0.5h-1.9v7.4h0.5v-3.6h1.1c0.5,0,0.8,0.1,1.1,0.3s0.6,0.6,1,1.3L67.3,28.4
																	z M64.1,24.4h-1.3v-3h1.3c0.6,0,1.2,0.1,1.5,0.4s0.5,0.6,0.5,1.1s-0.2,0.9-0.5,1.1C65.2,24.3,64.8,24.4,64.1,24.4"
																	/>
															</g>
														</g>
													</g>
												</g>
											</g>
										</g>
										<g>
											<g>
												<g>
													<g>
														<g>
															<g>
																<defs>
																	<rect id="SVGID_13_" x="4.1" y="-4.4" width="76.2" height="58.9"/>
																</defs>
																<clipPath id="SVGID_14_">
																	<use xlink:href="#SVGID_13_"  style="overflow:visible;"/>
																</clipPath>
																<polygon class="st10" points="8,28.4 10.4,28.4 10.4,28 8.5,28 8.5,21 8,21 																"/>
															</g>
														</g>
													</g>
												</g>
											</g>
										</g>
										<g>
											<g>
												<g>
													<g>
														<g>
															<g>
																<defs>
																	<rect id="SVGID_15_" x="4.1" y="-4.4" width="76.2" height="58.9"/>
																</defs>
																<clipPath id="SVGID_16_">
																	<use xlink:href="#SVGID_15_"  style="overflow:visible;"/>
																</clipPath>
																<polygon class="st11" points="45,15 44.7,28.5 45.4,28.5 																"/>
															</g>
														</g>
													</g>
												</g>
											</g>
										</g>
										<g>
											<g>
												<g>
													<g>
														<g>
															<g>
																<defs>
																	<rect id="SVGID_17_" x="4.1" y="-4.4" width="76.2" height="58.9"/>
																</defs>
																<clipPath id="SVGID_18_">
																	<use xlink:href="#SVGID_17_"  style="overflow:visible;"/>
																</clipPath>
																<path class="st12" d="M33.3,31.5h1.2c0.6,0,1,0.1,1.3,0.5c0.3,0.3,0.5,0.7,0.5,1.2s-0.2,0.9-0.5,1.2
																	s-0.7,0.5-1.3,0.5h-1.2V31.5L33.3,31.5z M33.6,31.7v2.9h0.9c0.4,0,0.8-0.1,1.1-0.4c0.3-0.3,0.4-0.6,0.4-1
																	s-0.1-0.8-0.4-1s-0.7-0.4-1.1-0.4h-0.9V31.7z"/>
															</g>
														</g>
													</g>
												</g>
											</g>
										</g>
										<g>
											<g>
												<g>
													<g>
														<g>
															<g>
																<defs>
																	<rect id="SVGID_19_" x="4.1" y="-4.4" width="76.2" height="58.9"/>
																</defs>
																<clipPath id="SVGID_20_">
																	<use xlink:href="#SVGID_19_"  style="overflow:visible;"/>
																</clipPath>
																<polygon class="st13" points="39.1,31.5 39.1,31.7 38.3,31.7 38.3,33 39,33 39,33.2 38.3,33.2 38.3,34.6 39.2,34.6 
																	39.2,34.8 38,34.8 38,31.5 																"/>
															</g>
														</g>
													</g>
												</g>
											</g>
										</g>
										<g>
											<g>
												<g>
													<g>
														<g>
															<g>
																<defs>
																	<rect id="SVGID_21_" x="4.1" y="-4.4" width="76.2" height="58.9"/>
																</defs>
																<clipPath id="SVGID_22_">
																	<use xlink:href="#SVGID_21_"  style="overflow:visible;"/>
																</clipPath>
																<rect x="48" y="31.5" class="st14" width="0.3" height="3.3"/>
															</g>
														</g>
													</g>
												</g>
											</g>
										</g>
										<g>
											<g>
												<g>
													<g>
														<g>
															<g>
																<defs>
																	<rect id="SVGID_23_" x="4.1" y="-4.4" width="76.2" height="58.9"/>
																</defs>
																<clipPath id="SVGID_24_">
																	<use xlink:href="#SVGID_23_"  style="overflow:visible;"/>
																</clipPath>
																<polygon class="st15" points="51.2,31.5 51.2,31.7 50.4,31.7 50.4,33 51.1,33 51.1,33.2 50.4,33.2 50.4,34.6 
																	51.2,34.6 51.2,34.8 50.1,34.8 50.1,31.5 																"/>
															</g>
														</g>
													</g>
												</g>
											</g>
										</g>
										<g>
											<g>
												<g>
													<g>
														<g>
															<g>
																<defs>
																	<rect id="SVGID_25_" x="4.1" y="-4.4" width="76.2" height="58.9"/>
																</defs>
																<clipPath id="SVGID_26_">
																	<use xlink:href="#SVGID_25_"  style="overflow:visible;"/>
																</clipPath>
																<polygon class="st16" points="45,34.8 43.8,31.5 43.5,31.5 44.8,34.8 																"/>
															</g>
														</g>
													</g>
												</g>
											</g>
										</g>
										<g>
											<g>
												<g>
													<g>
														<g>
															<g>
																<defs>
																	<rect id="SVGID_27_" x="4.1" y="-4.4" width="76.2" height="58.9"/>
																</defs>
																<clipPath id="SVGID_28_">
																	<use xlink:href="#SVGID_27_"  style="overflow:visible;"/>
																</clipPath>
																<polygon class="st17" points="45.3,34.8 46.5,31.5 46.3,31.5 45,34.8 																"/>
															</g>
														</g>
													</g>
												</g>
											</g>
										</g>
										<g>
											<g>
												<g>
													<g>
														<g>
															<g>
																<defs>
																	<rect id="SVGID_29_" x="4.1" y="-4.4" width="76.2" height="58.9"/>
																</defs>
																<clipPath id="SVGID_30_">
																	<use xlink:href="#SVGID_29_"  style="overflow:visible;"/>
																</clipPath>
																<polygon class="st18" points="53,19.3 53.4,19.3 54,20.4 53.8,20.4 																"/>
															</g>
														</g>
													</g>
												</g>
											</g>
										</g>
										<g>
											<g>
												<g>
													<g>
														<g>
															<g>
																<defs>
																	<rect id="SVGID_31_" x="4.1" y="-4.4" width="76.2" height="58.9"/>
																</defs>
																<clipPath id="SVGID_32_">
																	<use xlink:href="#SVGID_31_"  style="overflow:visible;"/>
																</clipPath>
																<path class="st19" d="M53.1,31.2c0.1,0,0.2,0,0.3,0.1s0.2,0.1,0.2,0.2s0.1,0.2,0.1,0.3c0,0.1,0,0.2-0.1,0.3
																	c-0.1,0.1-0.1,0.2-0.2,0.2s-0.2,0.1-0.3,0.1s-0.2,0-0.3-0.1s-0.2-0.1-0.2-0.2s-0.1-0.2-0.1-0.3c0-0.1,0-0.2,0.1-0.3
																	c0.1-0.1,0.1-0.2,0.2-0.2C52.8,31.2,53,31.2,53.1,31.2 M53.1,31.3c-0.1,0-0.3,0-0.4,0.1s-0.2,0.2-0.2,0.4
																	c0,0.1,0,0.3,0.2,0.4c0.1,0.1,0.2,0.2,0.4,0.2c0.1,0,0.3,0,0.4-0.2c0.1-0.1,0.2-0.2,0.2-0.4c0-0.1,0-0.3-0.2-0.4
																	C53.3,31.3,53.2,31.3,53.1,31.3 M52.9,32.1L52.9,32.1l-0.1-0.7H53c0.1,0,0.1,0,0.2,0s0.1,0,0.1,0.1v0.1v0.1
																	l-0.1,0.1c0,0,0,0,0.1,0c0,0,0,0.1,0.1,0.1l0.1,0.1h-0.1h-0.2c0-0.1-0.1-0.1-0.1-0.1H53h-0.1V32.1L52.9,32.1z
																	 M52.9,31.6v0.2H53c0.1,0,0.1,0,0.1,0s0,0,0-0.1v-0.1H52.9L52.9,31.6z"/>
															</g>
														</g>
													</g>
												</g>
											</g>
										</g>
									</g>
								</g>
							</g>
						</g>
					</g>
				</g>
			</g>
		</g>
	</g>
</g>
<g id="Layer_1_copy" class="st0">
	<g class="st1">
		<path class="st2" d="M273.4,42.4h-50.2V24.5h50.2V42.4z"/>
		<g>
			<path class="st3" d="M235.7,31.8c0.3,0.1,0.8,0.3,1.1,0.4c0.1,0,0.1,0.1,0,0.1c-0.2,0.1-0.6,0.9-1.4,3.7c1,0,2.2,0,2.9-0.1v0.9
				c-0.7-0.1-1.4-0.1-4.1-0.1c-2.7,0-3.4,0-4,0.1v-0.9c0.7,0.1,1.8,0.1,2.9,0.1h1.5C235.1,34.6,235.6,32.9,235.7,31.8z M234.3,31.5
				c-2,0-2.9,0-3.5,0.1v-0.9c0.6,0.1,1.5,0.1,3.5,0.1s2.9,0,3.5-0.1v0.9C237.3,31.5,236.3,31.5,234.3,31.5z M232.7,35.4
				c-0.2-1.1-0.5-2.2-0.8-3.1l0.8-0.2c0.3,0.8,0.7,2.2,0.9,3.1L232.7,35.4z M234.2,30.5c-0.2-0.5-0.3-1-0.5-1.4l0.9-0.3
				c0.1,0.4,0.3,0.9,0.5,1.4L234.2,30.5z"/>
			<path class="st3" d="M241.8,34.5l0.6-0.5c0.4,0.5,1.1,1.4,1.6,1.9l-0.7,0.5c-0.2-0.3-0.4-0.6-0.6-0.9l-1.7,1
				c-0.2,0.1-0.5,0.3-0.7,0.5c-0.1-0.3-0.3-0.6-0.5-0.8c0.3-0.2,0.4-0.4,0.4-0.8v-5c0-0.4,0-0.9-0.1-1.2c0.3,0.1,0.9,0.1,1.8,0.1
				c0.9,0,1.3,0,1.7-0.1c0,0.3-0.1,0.8-0.1,1.2v2c0,0.5,0,0.9,0.1,1.3c-0.3,0-0.6-0.1-1.5-0.1h-1.2v2c0.5-0.2,1-0.5,1.4-0.7
				C242.1,34.8,241.9,34.7,241.8,34.5z M242.8,30.2h-1.9v1.1h1.9V30.2z M242.8,32h-1.9v1.2h1.9V32z M247.3,30.8V35c0,1,0,1-1.2,1.3
				c0-0.4-0.2-0.7-0.5-1c0.9,0.1,1,0,1-0.4v-4.6h-1.3v7.2h-0.8c0.1-0.8,0.1-1.4,0.1-2.2v-4.4c0-0.5,0-1-0.1-1.3
				c0.4,0.1,0.8,0.1,1.5,0.1c0.6,0,1.1,0,1.5-0.1C247.3,29.8,247.3,30.4,247.3,30.8z"/>
			<path class="st3" d="M251.1,31.6c0,0.9,0,1.8-0.1,2.8s-0.7,2.1-1.6,2.9c-0.2-0.2-0.4-0.4-0.7-0.5c1.3-0.7,1.6-1.7,1.7-2.5
				c0.1-1.1,0.1-2.2,0-3.3c0.3,0.1,0.6,0.1,0.7,0.1c0.2,0,0.2,0,0.1,0.2C251.1,31.1,251.1,31.3,251.1,31.6z M251.6,34.7v-4.5h-1.8
				V35h-0.7c0-0.3,0.1-0.6,0.1-0.9v-3.8c0-0.3,0-0.5-0.1-0.7c0.3,0,0.8,0,1.6,0c0.7,0,1.4,0,1.7,0c0,0.2,0,0.4,0,0.7v3.6
				c0,0.3,0,0.7,0,0.9L251.6,34.7L251.6,34.7z M252.1,36.8c-0.4-0.5-0.7-1-1.1-1.4l0.5-0.4c0.5,0.4,0.9,0.8,1.3,1.4L252.1,36.8z
				 M255.4,30.4c0.5,0,1.1,0,1.5-0.1l-0.2,5.7c0,0.9-0.2,1.4-1.9,1.4c-0.1-0.3-0.2-0.6-0.4-0.9c1.1,0.2,1.5,0,1.5-0.7l0.1-4.7h-2.4
				c-0.3,0.6-0.5,1-0.8,1.4c-0.1-0.1-0.4-0.2-0.6-0.3c0.4-0.5,0.7-1.1,1-1.8c0.1-0.4,0.2-0.9,0.3-1.4c0.3,0.1,0.7,0.2,0.9,0.2
				c0.1,0,0.1,0.1,0,0.2s-0.3,0.4-0.6,1.1C254,30.4,255.4,30.4,255.4,30.4z M254.6,33.4l0.6-0.1c0.2,0.8,0.4,1.4,0.5,2.2l-0.7,0.2
				c0-0.2,0-0.3-0.1-0.5l-1.3,0.2c-0.2,0-0.5,0.1-0.7,0.2c0-0.3-0.1-0.5-0.2-0.7c0.2-0.1,0.2-0.2,0.4-0.4c0.4-1,0.6-1.7,0.7-2.6
				c0.3,0.1,0.7,0.2,0.8,0.2c0.2,0,0.2,0.1,0.1,0.2c-0.1,0.1-0.2,0.4-0.3,0.6c-0.3,0.8-0.5,1.3-0.8,1.9l1.3-0.2
				C254.8,34.1,254.7,33.7,254.6,33.4z"/>
			<path class="st3" d="M259.3,37.4c-0.1-0.3-0.3-0.5-0.6-0.8c2.2-0.4,3.2-0.9,3.6-2c-1.7,0-2.9,0-3.9,0.1v-0.9c1,0.1,2,0.1,4,0.1
				c0-0.8,0.1-2.5,0-3.1c0.4,0.1,0.7,0.1,1,0.1c0.1,0,0.1,0,0,0.1s-0.2,0.3-0.2,0.6c0,0.7-0.1,1.7-0.1,2.3c1.2,0,2.1,0,2.9-0.1v0.9
				c-0.8-0.1-1.7-0.1-3-0.1C262.8,36,261.3,36.9,259.3,37.4z M265.6,31.4l-0.9-0.2l0.4-1h-2.5c-1.9,0-2.8,0-3.6,0.1v-0.9
				c0.8,0.1,1.6,0.1,3.6,0.1s2.8,0,3.6-0.1L265.6,31.4z M261.4,33.1l-0.6,0.7c-0.4-0.4-0.9-0.7-1.4-1l0.5-0.6
				C260.5,32.5,261,32.8,261.4,33.1z M262.1,31.8l-0.5,0.7c-0.4-0.5-0.9-0.8-1.5-1.1l0.5-0.5C261.2,31.1,261.7,31.5,262.1,31.8z
				 M266.1,36.5l-0.6,0.7c-0.9-0.6-1.5-1-2.4-1.4l0.5-0.6C264.5,35.6,265.2,36,266.1,36.5z"/>
		</g>
	</g>
	<g class="st1">
		<g>
			<g>
				<g>
					<g>
						<g>
							<g>
								<g>
									<defs>
										<rect id="SVGID_33_" x="15.4" y="-4.7" width="76.2" height="58.9"/>
									</defs>
									<clipPath id="SVGID_34_">
										<use xlink:href="#SVGID_33_"  style="overflow:visible;"/>
									</clipPath>
									<g class="st20">
										<g>
											<g>
												<g>
													<g>
														<g>
															<g>
																<defs>
																	<rect id="SVGID_35_" x="15.4" y="-4.7" width="76.2" height="58.9"/>
																</defs>
																<clipPath id="SVGID_36_">
																	<use xlink:href="#SVGID_35_"  style="overflow:visible;"/>
																</clipPath>
																<path class="st21" d="M28.7,20.8V25c0,1,0.3,1.9,0.9,2.4s1.3,0.9,2.2,0.9c0.9,0,1.7-0.3,2.2-0.9
																	c0.6-0.6,0.9-1.5,0.9-2.6v-4.1h-0.5v4.1c0,1-0.2,1.7-0.7,2.2s-1.1,0.8-1.9,0.8s-1.4-0.3-1.9-0.8s-0.7-1.2-0.7-2.1
																	v-4.2L28.7,20.8L28.7,20.8z"/>
															</g>
														</g>
													</g>
												</g>
											</g>
										</g>
										<g>
											<g>
												<g>
													<g>
														<g>
															<g>
																<defs>
																	<rect id="SVGID_37_" x="15.4" y="-4.7" width="76.2" height="58.9"/>
																</defs>
																<clipPath id="SVGID_38_">
																	<use xlink:href="#SVGID_37_"  style="overflow:visible;"/>
																</clipPath>
																<polygon class="st22" points="48.3,28.2 48.8,28.2 48.8,20.8 48.3,20.8 45.4,24.3 42.5,20.8 42,20.8 42,28.2 
																	42.5,28.2 42.5,21.4 45.4,25 48.3,21.4 																"/>
															</g>
														</g>
													</g>
												</g>
											</g>
										</g>
										<g>
											<g>
												<g>
													<g>
														<g>
															<g>
																<defs>
																	<rect id="SVGID_39_" x="15.4" y="-4.7" width="76.2" height="58.9"/>
																</defs>
																<clipPath id="SVGID_40_">
																	<use xlink:href="#SVGID_39_"  style="overflow:visible;"/>
																</clipPath>
																<polygon class="st23" points="63.8,28.2 66.2,28.2 66.2,27.8 64.3,27.8 64.3,24.6 65.9,24.6 65.9,24.2 64.3,24.2 
																	64.3,21.1 66.1,21.1 66.1,20.8 63.8,20.8 																"/>
															</g>
														</g>
													</g>
												</g>
											</g>
										</g>
										<g>
											<g>
												<g>
													<g>
														<g>
															<g>
																<defs>
																	<rect id="SVGID_41_" x="15.4" y="-4.7" width="76.2" height="58.9"/>
																</defs>
																<clipPath id="SVGID_42_">
																	<use xlink:href="#SVGID_41_"  style="overflow:visible;"/>
																</clipPath>
																<polygon class="st24" points="85.1,28.2 87.5,28.2 87.5,27.8 85.6,27.8 85.6,24.6 87.2,24.6 87.2,24.2 85.6,24.2 
																	85.6,21.1 87.4,21.1 87.4,20.8 85.1,20.8 																"/>
															</g>
														</g>
													</g>
												</g>
											</g>
										</g>
										<g>
											<g>
												<g>
													<g>
														<g>
															<g>
																<defs>
																	<rect id="SVGID_43_" x="15.4" y="-4.7" width="76.2" height="58.9"/>
																</defs>
																<clipPath id="SVGID_44_">
																	<use xlink:href="#SVGID_43_"  style="overflow:visible;"/>
																</clipPath>
																<path class="st25" d="M78.6,28.2h0.6l-1.7-2.5c-0.4-0.6-0.7-1-1-1.1h-0.1h0.1c0.9-0.3,1.4-0.9,1.4-1.8
																	c0-0.6-0.2-1-0.6-1.4c-0.4-0.3-1-0.5-1.8-0.5h-1.9v7.4h0.5v-3.6h1.1c0.5,0,0.8,0.1,1.1,0.3s0.6,0.6,1,1.3L78.6,28.2
																	z M75.4,24.2h-1.3v-3h1.3c0.6,0,1.2,0.1,1.5,0.4s0.5,0.6,0.5,1.1s-0.2,0.9-0.5,1.1C76.6,24,76.1,24.2,75.4,24.2"/>
															</g>
														</g>
													</g>
												</g>
											</g>
										</g>
										<g>
											<g>
												<g>
													<g>
														<g>
															<g>
																<defs>
																	<rect id="SVGID_45_" x="15.4" y="-4.7" width="76.2" height="58.9"/>
																</defs>
																<clipPath id="SVGID_46_">
																	<use xlink:href="#SVGID_45_"  style="overflow:visible;"/>
																</clipPath>
																<polygon class="st26" points="19.3,28.2 21.7,28.2 21.7,27.8 19.8,27.8 19.8,20.8 19.3,20.8 																"/>
															</g>
														</g>
													</g>
												</g>
											</g>
										</g>
										<g>
											<g>
												<g>
													<g>
														<g>
															<g>
																<defs>
																	<rect id="SVGID_47_" x="15.4" y="-4.7" width="76.2" height="58.9"/>
																</defs>
																<clipPath id="SVGID_48_">
																	<use xlink:href="#SVGID_47_"  style="overflow:visible;"/>
																</clipPath>
																<polygon class="st27" points="56.3,14.7 56,28.3 56.7,28.3 																"/>
															</g>
														</g>
													</g>
												</g>
											</g>
										</g>
										<g>
											<g>
												<g>
													<g>
														<g>
															<g>
																<defs>
																	<rect id="SVGID_49_" x="15.4" y="-4.7" width="76.2" height="58.9"/>
																</defs>
																<clipPath id="SVGID_50_">
																	<use xlink:href="#SVGID_49_"  style="overflow:visible;"/>
																</clipPath>
																<path class="st28" d="M44.6,31.2h1.2c0.6,0,1,0.1,1.3,0.5c0.3,0.3,0.5,0.7,0.5,1.2s-0.2,0.9-0.5,1.2
																	s-0.7,0.5-1.3,0.5h-1.2V31.2L44.6,31.2z M44.9,31.4v2.9h0.9c0.4,0,0.8-0.1,1.1-0.4c0.3-0.3,0.4-0.6,0.4-1
																	s-0.1-0.8-0.4-1s-0.7-0.4-1.1-0.4L44.9,31.4L44.9,31.4z"/>
															</g>
														</g>
													</g>
												</g>
											</g>
										</g>
										<g>
											<g>
												<g>
													<g>
														<g>
															<g>
																<defs>
																	<rect id="SVGID_51_" x="15.4" y="-4.7" width="76.2" height="58.9"/>
																</defs>
																<clipPath id="SVGID_52_">
																	<use xlink:href="#SVGID_51_"  style="overflow:visible;"/>
																</clipPath>
																<polygon class="st29" points="50.4,31.2 50.4,31.4 49.6,31.4 49.6,32.7 50.3,32.7 50.3,33 49.6,33 49.6,34.3 
																	50.5,34.3 50.5,34.5 49.3,34.5 49.3,31.2 																"/>
															</g>
														</g>
													</g>
												</g>
											</g>
										</g>
										<g>
											<g>
												<g>
													<g>
														<g>
															<g>
																<defs>
																	<rect id="SVGID_53_" x="15.4" y="-4.7" width="76.2" height="58.9"/>
																</defs>
																<clipPath id="SVGID_54_">
																	<use xlink:href="#SVGID_53_"  style="overflow:visible;"/>
																</clipPath>
																<rect x="59.3" y="31.2" class="st30" width="0.3" height="3.3"/>
															</g>
														</g>
													</g>
												</g>
											</g>
										</g>
										<g>
											<g>
												<g>
													<g>
														<g>
															<g>
																<defs>
																	<rect id="SVGID_55_" x="15.4" y="-4.7" width="76.2" height="58.9"/>
																</defs>
																<clipPath id="SVGID_56_">
																	<use xlink:href="#SVGID_55_"  style="overflow:visible;"/>
																</clipPath>
																<polygon class="st31" points="62.5,31.2 62.5,31.4 61.7,31.4 61.7,32.7 62.4,32.7 62.4,33 61.7,33 61.7,34.3 
																	62.5,34.3 62.5,34.5 61.4,34.5 61.4,31.2 																"/>
															</g>
														</g>
													</g>
												</g>
											</g>
										</g>
										<g>
											<g>
												<g>
													<g>
														<g>
															<g>
																<defs>
																	<rect id="SVGID_57_" x="15.4" y="-4.7" width="76.2" height="58.9"/>
																</defs>
																<clipPath id="SVGID_58_">
																	<use xlink:href="#SVGID_57_"  style="overflow:visible;"/>
																</clipPath>
																<polygon class="st32" points="56.3,34.5 55.1,31.2 54.8,31.2 56.1,34.5 																"/>
															</g>
														</g>
													</g>
												</g>
											</g>
										</g>
										<g>
											<g>
												<g>
													<g>
														<g>
															<g>
																<defs>
																	<rect id="SVGID_59_" x="15.4" y="-4.7" width="76.2" height="58.9"/>
																</defs>
																<clipPath id="SVGID_60_">
																	<use xlink:href="#SVGID_59_"  style="overflow:visible;"/>
																</clipPath>
																<polygon class="st33" points="56.6,34.5 57.8,31.2 57.6,31.2 56.3,34.5 																"/>
															</g>
														</g>
													</g>
												</g>
											</g>
										</g>
										<g>
											<g>
												<g>
													<g>
														<g>
															<g>
																<defs>
																	<rect id="SVGID_61_" x="15.4" y="-4.7" width="76.2" height="58.9"/>
																</defs>
																<clipPath id="SVGID_62_">
																	<use xlink:href="#SVGID_61_"  style="overflow:visible;"/>
																</clipPath>
																<polygon class="st34" points="64.3,19 64.7,19 65.3,20.1 65.1,20.1 																"/>
															</g>
														</g>
													</g>
												</g>
											</g>
										</g>
										<g>
											<g>
												<g>
													<g>
														<g>
															<g>
																<defs>
																	<rect id="SVGID_63_" x="15.4" y="-4.7" width="76.2" height="58.9"/>
																</defs>
																<clipPath id="SVGID_64_">
																	<use xlink:href="#SVGID_63_"  style="overflow:visible;"/>
																</clipPath>
																<path class="st35" d="M64.4,30.9c0.1,0,0.2,0,0.3,0.1c0.1,0.1,0.2,0.1,0.2,0.2c0.1,0.1,0.1,0.2,0.1,0.3
																	c0,0.1,0,0.2-0.1,0.3c-0.1,0.1-0.1,0.2-0.2,0.2s-0.2,0.1-0.3,0.1s-0.2,0-0.3-0.1c-0.1-0.1-0.2-0.1-0.2-0.2
																	s-0.1-0.2-0.1-0.3c0-0.1,0-0.2,0.1-0.3C64,31.1,64,31,64.1,31C64.2,30.9,64.3,30.9,64.4,30.9 M64.4,31
																	c-0.1,0-0.3,0-0.4,0.1s-0.2,0.2-0.2,0.4c0,0.1,0,0.3,0.2,0.4c0.1,0.1,0.2,0.1,0.4,0.1c0.1,0,0.3,0,0.4-0.1
																	s0.2-0.2,0.2-0.4c0-0.1-0.1-0.3-0.2-0.4C64.6,31.1,64.5,31,64.4,31 M64.2,31.9L64.2,31.9l-0.1-0.7h0.2
																	c0.1,0,0.1,0,0.2,0s0.1,0,0.1,0.1v0.1c0,0,0,0.1-0.1,0.1l-0.1,0.1h0.1l0.1,0.1l0.1,0.1h-0.1l-0.1-0.1
																	c0-0.1-0.1-0.1-0.1-0.1h-0.1h-0.1V31.9L64.2,31.9z M64.2,31.3v0.2h0.1c0.1,0,0.1,0,0.1,0s0,0,0-0.1v-0.1H64.2
																	L64.2,31.3z"/>
															</g>
														</g>
													</g>
												</g>
											</g>
										</g>
									</g>
								</g>
							</g>
						</g>
					</g>
				</g>
			</g>
		</g>
	</g>
	<g class="st1">
		<path class="st2" d="M119.8,10.7c0-0.4,0-0.8-0.1-1c0.3,0.1,0.8,0.1,1.2,0.1c0.2,0,0.2,0.1,0,0.1c-0.1,0.1-0.2,0.2-0.2,0.4v1.1
			c0.5,0,1-0.1,1.3-0.1v1l-1.3-0.1v1.5c0.5-0.1,1.2-0.2,1.5-0.3c-0.1,0.4-0.2,0.9-0.1,1.1c-0.3,0-0.6,0.1-1.4,0.2
			c0,0.9,0.1,1.9,0.1,2.7h-1.2c0.1-0.8,0.1-1.7,0.1-2.5c-1.4,0.2-1.8,0.3-2.2,0.4c0-0.3-0.1-1-0.2-1.3c0.4,0.1,0.8,0,2.4-0.2v-1.6
			c-0.9,0-1.5,0.1-1.9,0.2c-0.1-0.4-0.2-0.7-0.4-0.9c0.3-0.2,0.6-0.6,1.2-2.8c-0.5,0-0.8,0-1.2,0.1v-1c0.4,0.1,0.8,0.1,1.4,0.1
			c0.1-0.6,0.3-1.4,0.3-1.8c0.4,0.1,1.1,0.3,1.3,0.3c0.2,0,0.2,0.1,0,0.2s-0.2,0.2-0.6,1.4c1,0,1.7,0,2.2-0.1V9
			c-0.6-0.1-1.6-0.1-2.6-0.1l-0.9,2.6h1.1C119.8,11.4,119.8,10.7,119.8,10.7z M128.5,11.1l-0.7,0.9c-0.9-0.9-1.2-1.2-2.5-1.9
			c-0.8,0.9-1.6,1.5-2.4,2c-0.3-0.4-0.5-0.5-0.9-0.8c1.7-0.8,3-1.9,3.6-3.3h-1.4c-0.6,0-1.2,0-1.6,0.1V6.9C123,7,124.1,7,125,7
			s1.8,0,2.4-0.1c-0.4,0.9-0.9,1.6-1.6,2.5C126.9,10,127.6,10.4,128.5,11.1z M125.6,16c1.2,0,2,0,2.7-0.1V17
			c-0.7-0.1-1.7-0.1-3.1-0.1s-2.4,0-3.1,0.1v-1.1c0.7,0.1,1.4,0.1,2.5,0.1v-2.6c-0.8,0-1.4,0.1-1.9,0.1v-1.1
			c0.6,0.1,1.4,0.1,2.5,0.1s1.9,0,2.5-0.1v1.1c-0.5-0.1-1.2-0.1-2.1-0.1L125.6,16L125.6,16z"/>
		<path class="st2" d="M136.7,11.6c0,0.6-0.2,0.8-1.8,0.9c0-0.4-0.2-0.7-0.4-1c1.1,0.2,1.3,0,1.3-0.3V9.9h-0.2
			c-1,1.3-2.9,2.2-4.9,2.9c-0.1-0.3-0.3-0.7-0.6-0.9c1.6-0.2,3.2-1,4.6-2c-2,0-3.2,0-4.1,0.1V9.1c0.8,0.1,1.9,0.1,4.2,0.1
			c-0.4-0.3-0.9-0.6-1.3-0.8l0.7-0.6c0.4,0.2,0.8,0.4,1.2,0.7l2.3-1h-4.2c-0.8,0-1.4,0-2,0.1v-1c0.7,0.1,2.2,0.1,4.1,0.1
			s3.4,0,4.1-0.1v0.9c-0.3,0-1.1,0.3-3.4,1.4c0.1,0.1,0.2,0.1,0.3,0.2c2.2,0,3.6-0.1,4.3-0.1l-0.8,2.1l-1.2-0.2l0.6-1h-2.4
			L136.7,11.6L136.7,11.6z M130.2,14.1v-0.9c1.2,0.1,2.7,0.1,4.9,0.1c0-0.3,0-0.5-0.1-0.7c0.3,0,0.8,0.1,1.1,0
			c0.2,0,0.3,0.1,0.1,0.2c-0.1,0-0.1,0.2-0.2,0.4c2.1,0,3.5-0.1,4.6-0.1V14c-0.5,0-2.4-0.1-3.9-0.1c1.1,1.2,2.1,1.6,4.3,1.8
			c-0.4,0.5-0.5,0.9-0.6,1.2c-2.4-0.6-3.7-1.4-4.4-3l0,0v2.2c0,0.4,0,0.7,0.1,1H135c0.1-0.4,0.1-0.6,0.1-1V14
			c-1,1.3-2.5,2.5-4.2,3.1c-0.1-0.3-0.3-0.6-0.7-0.9c1.7-0.4,3-1.3,4-2.3C132.8,14,130.6,14,130.2,14.1z"/>
		<path class="st2" d="M147.1,9.2c-1.7,0-2.8,0.1-3.7,0.1V8.2c0.9,0.1,2,0.1,3.7,0.1c0-1.3-0.1-1.9-0.1-2.2c0.4,0.1,0.9,0.1,1.3,0.1
			c0.2,0,0.2,0.1,0.1,0.2c-0.2,0.1-0.2,0.4-0.2,0.7v1.2c1.6,0,2.6-0.1,3.5-0.1v1.1c-0.9-0.1-1.9-0.1-3.5-0.1v2.1
			c2.2,0,3.6-0.1,4.9-0.1v1.1c-1.3-0.1-2.9-0.1-5.4-0.1s-4.1,0-5.4,0.1v-1.1c1.2,0.1,2.7,0.1,4.9,0.1L147.1,9.2L147.1,9.2z
			 M148.5,13.7l0.9-0.5c0.9,0.9,1.9,2.2,2.9,3.4l-1.1,0.7c-0.2-0.4-0.5-0.8-0.7-1.1l-4.5,0.3c-1,0.1-1.9,0.2-2.4,0.4
			c-0.1-0.4-0.2-0.8-0.4-1.2c1-0.5,2.1-1.6,3.3-3.4c0.3,0.2,0.7,0.4,1,0.4c0.3,0.1,0.3,0.2,0,0.3c-0.1,0.1-0.4,0.3-2.7,2.6
			c1.8-0.1,3.5-0.2,5.1-0.4C149.4,14.7,148.9,14.2,148.5,13.7z"/>
		<path class="st2" d="M157.4,10.7c0.9,0.9,1.1,1.8,1.1,2.4c0,1.2-0.6,1.8-1.7,2c-0.1-0.4-0.2-0.7-0.6-1.1c0.9,0,1.3-0.2,1.3-1
			c0-0.4-0.4-1.4-1.1-2.3l1.1-2.9H156v9.6h-1.1c0.1-1.1,0.1-1.9,0.1-2.9V8.1c0-0.5,0-1-0.1-1.2c0.5,0,1.2,0.1,2.1,0.1
			c0.9,0,1.5,0,2-0.1L157.4,10.7z M160,15.1c-0.2,0.4-0.7,1.1-1.1,1.5c-0.3-0.3-0.6-0.4-1-0.5c0.8-0.7,1.3-1.4,1.8-2.5
			c0.3,0.2,0.6,0.4,0.9,0.4c0.3,0.1,0.3,0.2,0.1,0.3C160.6,14.4,160.3,14.6,160,15.1z M160,10.8V10c-0.3,0.3-0.6,0.7-1.1,1.1
			c-0.2-0.2-0.5-0.4-0.9-0.6c1.7-1.3,2.6-2.8,3.1-4.4c0.4,0.2,1,0.3,1.3,0.3c0.2,0,0.3,0.1,0,0.2c-0.1,0-0.1,0.1-0.2,0.1
			c0.7,1.5,2.2,2.7,3.6,2.9c-0.4,0.4-0.6,0.7-0.7,1.1c-0.4-0.1-0.9-0.4-1.4-0.8v0.8c-0.3,0-0.8-0.1-1.4-0.1V12c1,0,1.9-0.1,2.5-0.1
			V13c-0.6-0.1-1.4-0.1-2.5-0.1v3c0,1.1-0.2,1.4-1.8,1.5c-0.1-0.4-0.2-0.8-0.5-1.1c1.2,0.1,1.3,0.1,1.3-0.8v-2.6
			c-1,0-1.7,0.1-2.3,0.1v-1.1c0.6,0.1,1.3,0.1,2.3,0.1v-1.4C160.8,10.7,160.4,10.7,160,10.8z M161.8,9.9c0.7,0,1.4,0,1.8-0.1
			c-0.7-0.6-1.4-1.5-1.8-2.4c-0.6,1-1,1.7-1.6,2.4C160.6,9.9,161.1,9.9,161.8,9.9z M164.6,16.5c-0.4-0.7-1.2-1.7-1.8-2.4l0.7-0.6
			c0.6,0.6,1.5,1.7,2,2.3L164.6,16.5z"/>
		<path class="st2" d="M173.6,17.2h-1.2c0.1-0.4,0.1-1.4,0.1-2.7h-2.7c-0.3,1.2-0.8,2.2-1.4,3c-0.2-0.3-0.5-0.5-1-0.7
			c1.1-1,1.7-2.6,1.7-4.3V10c-0.3,0.3-0.6,0.6-0.9,0.8c-0.2-0.3-0.4-0.5-0.9-0.7c1.7-0.8,3.4-2.7,3.8-4c0.4,0.2,0.9,0.3,1.1,0.4
			c0.2,0.1,0.3,0.1,0,0.3c-0.1,0.1-0.4,0.3-0.7,0.7h2.3c0.6,0,1.7,0,2.2-0.1l-1.6,2.1c1,0,1.9,0,2.8-0.1c-0.1,0.4-0.1,0.6-0.1,0.8
			V16c0,1.2-0.2,1.4-2,1.5c-0.1-0.5-0.2-0.8-0.5-1.2c1.2,0.1,1.5,0,1.5-0.5v-1.2h-2.6C173.5,15.8,173.6,16.9,173.6,17.2z M173.2,9.4
			l1-1.2h-3.3c-0.3,0.4-0.7,0.8-1.1,1.2H173.2z M172.6,12.3h-2.5c0,0.5-0.1,1-0.1,1.4h2.6V12.3z M172.6,10.2h-2.5v1.4h2.5V10.2z
			 M173.5,11.6h2.6v-1.4h-2.6V11.6z M173.5,13.7h2.6v-1.4h-2.6V13.7z"/>
		<path class="st2" d="M180.4,16.9c-0.3-0.2-0.8-0.4-1.1-0.4c1-1.3,1.3-2.5,1.5-5.4c0.1-0.8,0-3.4,0-4.1c1.8,0.2,6.9-0.3,8.1-0.8
			c0.1,0.2,0.3,0.9,0.4,1c0.2,0.3,0.1,0.4-0.2,0.3c-0.2-0.1-1.2-0.1-2.8,0.1L186.2,9c2.5,0,3.4,0,4.1-0.1V10
			c-0.7-0.1-1.6-0.1-4.1-0.1l-0.1,1.3c1.5,0,2.5,0,3-0.1c0,0.2-0.1,0.5-0.1,0.9v1.5c0,0.4,0,0.8,0.1,1.1h-1V12h-4.2v2.8h-1.1
			c0.1-0.3,0.1-0.7,0.1-1.1V12c0-0.4,0-0.6,0-0.8c0.4,0,1.2,0.1,2.3,0.1l0.1-1.3h-3.4C181.8,13.2,181.5,14.9,180.4,16.9z
			 M186.6,13.1c-0.1,0.1-0.2,0.4-0.2,0.8c-0.1,0.9-0.4,1.6-0.7,2c-0.5,0.7-1.8,1.5-3.4,1.7c-0.1-0.3-0.4-0.7-0.8-0.9
			c1.8,0,3.1-0.8,3.5-1.5c0.2-0.5,0.4-1.2,0.2-2.3c0.2,0.1,0.9,0.1,1.2,0.1C186.7,12.8,186.7,12.9,186.6,13.1z M181.8,7.8
			c0,0.3,0,0.7,0,1.3h3.4l0.1-1.4C184.1,7.8,182.3,7.8,181.8,7.8z M189.4,17.5c-0.6-0.6-1.6-1.3-2.9-2l0.5-0.8
			c0.9,0.4,2.5,1.3,3.2,1.8L189.4,17.5z"/>
		<path class="st2" d="M111.6,26c-0.2-0.3-0.5-0.6-0.8-0.8c0.7-0.9,1.2-1.7,1.5-2.8c0.2-0.8,0.4-1.6,0.6-2.4
			c0.4,0.2,0.8,0.3,1.2,0.4c0.3,0,0.3,0.2,0,0.3c-0.1,0-0.2,0.3-0.7,1.4v9h-1.1c0.1-0.9,0.2-1.6,0.2-2.4v-4.2
			C112.2,25,111.9,25.5,111.6,26z M122.3,29.5c-0.3,0.5-0.5,0.9-0.5,1.3c-1.8-0.2-3.2-0.6-4.4-1.2c-0.7,0.7-1.7,1.2-2.6,1.6
			c-0.2-0.3-0.4-0.6-0.8-0.8c1-0.3,1.9-0.7,2.6-1.3c-0.6-0.4-1.1-0.9-1.5-1.6l0.8-0.5c0.3,0.6,0.8,1,1.3,1.4
			c0.3-0.4,0.4-0.9,0.5-1.9c-1.2,0-2.1,0-2.8,0.1c0.1-0.5,0.1-1.1,0.1-1.8c0-0.6,0-1.2-0.1-1.6c0.7,0.1,1.6,0.1,2.9,0.1
			c0-0.4,0-0.8,0-1.3c-1.3,0-2.4,0-3.2,0.1V21c0.8,0.1,1.8,0.1,3.1,0.1c0-0.6-0.1-1.1-0.1-1.4c0.4,0.1,0.7,0.1,1.3,0.1
			c0.3,0,0.3,0.1,0.1,0.3c-0.1,0.1-0.2,0.5-0.2,1.1c1.4,0,2.5,0,3.3-0.1v1.1c-0.8-0.1-1.9-0.1-3.3-0.1c0,0.5,0,0.9,0,1.3
			c1.3,0,2.2,0,2.9-0.1c-0.1,0.4-0.1,1-0.1,1.6s0,1.4,0.1,1.9c-0.7-0.1-1.6-0.1-3-0.1c-0.1,1.2-0.3,1.9-0.6,2.4
			C119.2,29.4,120.6,29.6,122.3,29.5z M117.7,24.1h-1.8v1.6h1.8C117.7,25.2,117.7,24.7,117.7,24.1z M118.6,25.7h1.8v-1.6h-1.8
			C118.7,24.7,118.7,25.2,118.6,25.7z"/>
		<path class="st2" d="M125.1,26.8c-0.1,1.7-0.4,3.3-0.9,4.3c-0.3-0.5-0.5-0.7-0.8-0.9c0.6-1.2,0.8-2.4,0.8-5.2v-3
			c0-0.8,0-1.3-0.1-1.6c0.6,0,1.1,0.1,1.9,0.1s1.3,0,1.8-0.1c0,0.4-0.1,0.9-0.1,1.6v7.8c0,0.7-0.2,0.9-1.8,1.1
			c-0.1-0.4-0.2-0.8-0.4-1.2c1.1,0.1,1.3,0,1.3-0.4v-2.6C126.8,26.8,125.1,26.8,125.1,26.8z M126.8,23.2v-2h-1.7v2H126.8z M126.8,26
			v-2h-1.7v2H126.8z M133,30.6c-1.1,0-1.3-0.1-1.3-1.4l0.2-7.7h-2c0,1.4,0,2.9,0,3.9c0,2.8-0.4,4.2-1.3,5.6
			c-0.2-0.3-0.5-0.5-0.9-0.6c0.9-1,1.2-2.4,1.2-4.7c0-1.3,0-2.4-0.2-5.1c0.5,0.1,1.2,0.1,2,0.1c0.9,0,1.6,0,2.1-0.1
			c-0.1,0.4-0.2,1.1-0.2,1.6l-0.1,7c0,0.3,0.1,0.4,0.6,0.4c0.4,0,0.5-0.2,0.6-1.5c0.2,0.4,0.4,0.6,1,0.8
			C134.4,30.6,134.2,30.6,133,30.6z"/>
		<path class="st2" d="M136.7,31.1c-0.3-0.4-0.6-0.5-0.9-0.8c0.7-1.2,1-2.3,1-5.3v-2.8c0-0.8,0-1.6-0.1-2c0.5,0.1,1.1,0.1,1.9,0.1
			c0.8,0,1.3,0,1.8-0.1c-0.1,0.4-0.1,1.2-0.1,2v7.3c0,0.7-0.4,0.9-1.9,1.1c0-0.5-0.1-0.8-0.5-1.2c1,0.2,1.4,0,1.4-0.4v-2.4h-1.7
			C137.7,27.9,137.2,29.9,136.7,31.1z M139.4,21.2h-1.7v1.9h1.7V21.2z M137.7,25.9h1.7v-2h-1.7V25.9z M141.1,31.1
			c-0.3-0.4-0.6-0.5-1-0.6c1.7-1.3,2.4-2.2,2.8-4.8c-1.2,0-1.7,0-2.2,0.1v-1c0.4,0.1,0.9,0.1,2.3,0.1c0.1-0.6,0.1-1.4,0.1-2.1
			c-1.1,0-1.6,0-2,0.1v-1c0.4,0.1,0.9,0.1,2,0.1c0-0.9-0.1-1.8-0.1-2.1c0.3,0.1,1.1,0.1,1.3,0.1s0.2,0.1,0.1,0.3
			c-0.1,0.2-0.2,0.5-0.2,0.6c0,0.4,0,0.7,0,1.1c1.7,0,2,0,2.6-0.1v1c-0.5-0.1-0.8-0.1-2.6-0.1c0,0.7-0.1,1.4-0.1,2.1
			c2,0,2.3,0,2.9-0.1v1c-0.5-0.1-0.9-0.1-2.8-0.1c0.4,1.9,1.6,3.4,3.1,4.1c-0.4,0.4-0.6,0.7-0.7,1.1c-1.4-0.9-2.3-2.4-2.7-4.2
			C143.3,28.8,142.5,29.9,141.1,31.1z"/>
		<path class="st2" d="M150.2,28.7c-0.2,0.7-0.5,1.4-0.7,2.1c-0.4-0.3-0.8-0.6-1.2-0.8c0.4-0.5,0.6-1,1-1.9c0.2-0.6,0.5-1.4,0.6-2.1
			c0.3,0.3,0.6,0.6,1,0.7C150.7,27.1,150.6,27.6,150.2,28.7z M150.2,25.3c-0.5-0.4-1.3-1-1.9-1.3l0.6-0.9c0.5,0.4,1.3,0.9,1.9,1.2
			L150.2,25.3z M150.7,22.5c-0.6-0.7-1.2-1.2-1.8-1.6l0.6-0.8c0.6,0.5,1.3,1,1.9,1.5L150.7,22.5z M158.9,20.7v1
			c-0.5-0.1-2-0.1-3.2-0.1v0.9c1,0,2.3-0.1,2.8-0.1v1c-0.5-0.1-1.7-0.1-2.8-0.1V24c1.2,0,3-0.1,3.5-0.1v1c-0.7-0.1-2.7-0.1-4-0.1
			s-3.3,0-4,0.1v-1c0.5,0.1,2.2,0.1,3.5,0.1v-0.9c-1,0-2.1,0.1-2.6,0.1v-1c0.5,0.1,1.6,0.1,2.6,0.1v-0.9c-1.1,0-2.5,0.1-2.9,0.1v-1
			c0.5,0.1,1.9,0.1,2.9,0.1c0-0.6,0-0.9,0-1.1c0.3,0,0.7,0.1,1.1,0c0.1,0,0.2,0.1,0,0.2c-0.1,0.1-0.1,0.3-0.1,0.5v0.4
			C156.8,20.8,158.4,20.8,158.9,20.7z M153.4,29.1v1.8h-1.1c0.1-0.7,0.1-1.3,0.1-1.8v-2.6c0-0.4,0-0.9,0-1.1c0.5,0,1.5,0.1,2.9,0.1
			c1.3,0,2.4,0,2.9-0.1c0,0.2,0,0.7,0,1.1v3.2c0,1-0.1,1.2-1.8,1.4c-0.1-0.4-0.1-0.7-0.4-1.1c1.2,0.1,1.2,0,1.2-0.5v-0.4H153.4z
			 M157.1,26.9v-0.8h-3.8v0.8H157.1z M157.1,28.4v-0.8h-3.8v0.8H157.1z"/>
		<path class="st2" d="M162.5,28.4c-0.4,0.6-0.6,0.9-0.9,1.6c-0.3-0.2-0.6-0.4-1-0.4c0.8-0.7,1.2-1.4,1.6-2.4
			c0.4,0.2,0.7,0.3,0.8,0.4c0.3,0.1,0.3,0.1,0,0.2C162.9,27.8,162.7,28.1,162.5,28.4z M166.7,23.9v1c-0.6-0.1-1.2-0.1-2.2-0.1V26
			c1,0,1.5,0,2.1-0.1v1c-0.6-0.1-1.1-0.1-2.1-0.1v2.8c0,0.9-0.1,1.1-1.8,1.3c0-0.4-0.1-0.8-0.4-1.2c1.1,0.2,1.3,0.1,1.3-1v-2
			c-1.1,0-1.8,0-2.4,0.1v-1c0.6,0.1,1.3,0.1,2.4,0.1v-1.2c-1.1,0-2,0-2.6,0.1v-1c0.8,0.1,1.8,0.1,3.3,0.1c0.3-0.5,0.6-1.1,0.8-1.7
			c0.4,0.2,0.7,0.4,1,0.5c0.1,0,0.2,0.1,0,0.2c-0.1,0.1-0.4,0.3-1,1.1C165.7,24,166.2,23.9,166.7,23.9z M163.4,20.1l1.1-0.2
			c0.1,0.4,0.2,0.8,0.3,1.3c0.8,0,1.3-0.1,1.8-0.1v1.1C166,22,165.2,22,164,22s-2.1,0-2.7,0.1V21c0.6,0.1,1.4,0.1,2.4,0.1
			C163.6,20.8,163.5,20.4,163.4,20.1z M162.5,23.9c-0.1-0.6-0.3-0.9-0.5-1.2l0.9-0.4c0.1,0.4,0.3,0.8,0.6,1.2L162.5,23.9z
			 M165.7,29.4c-0.3-0.7-0.6-1.1-1-1.6l0.7-0.5c0.4,0.5,0.7,0.9,1.2,1.5L165.7,29.4z M170,23.9c0.9,0,1.3,0,1.8-0.1V25
			c-0.4-0.1-0.7-0.1-1.3-0.2v4.4c0,0.8,0,1.3,0.1,2h-1.2c0.1-0.7,0.1-1.2,0.1-2v-4.4h-1.1c-0.1,3-0.5,4.7-1.5,6.2
			c-0.3-0.2-0.5-0.3-1.1-0.5c1.2-1.2,1.6-2.6,1.7-6.3c0-1.5,0-2.8-0.1-3.4c1.1,0.1,2.7-0.3,3.7-0.7c0.1,0.3,0.5,0.8,0.6,1
			c0.2,0.2,0.2,0.3-0.1,0.2c-0.3,0-0.5,0-1.6,0.1c-0.9,0.1-1,0.1-1.6,0.1v2.4C168.3,23.9,170,23.9,170,23.9z"/>
		<path class="st2" d="M173.8,24c-0.1-0.3-0.4-0.6-0.7-0.8c0.6-0.4,1.4-1.2,2.2-2.2c0.3-0.5,0.6-0.9,0.7-1.3
			c0.3,0.2,0.8,0.4,1.1,0.5c0.2,0,0.2,0.1,0,0.2c-0.1,0-0.2,0.1-0.4,0.2c1,0.6,1.8,1.1,2.5,1.6c-0.3,0.2-0.6,0.5-0.7,0.8
			c-0.6-0.5-1.4-1.2-2.3-1.8C175.6,22.1,174.6,23.2,173.8,24z M175.9,25.6c-1,0-1.5,0-2.1,0.1v-1c0.6,0.1,1.1,0.1,2.1,0.1v-1
			c-0.4,0-0.7,0-0.9,0.1V23c0.4,0.1,0.8,0.1,1.6,0.1s1.2,0,1.6-0.1v0.9c-0.4,0-0.7-0.1-1.3-0.1v1c0.7,0,1.2,0,1.6-0.1v1
			c-0.5,0-0.9-0.1-1.6-0.1v1.1c0.8,0,1.3,0,1.6-0.1c-0.1,0.4-0.1,0.8-0.1,1.2v1.3c0,0.4,0,0.9,0.1,1.3h-1v-0.7h-2.2v1h-1
			c0.1-0.4,0.1-0.9,0.1-1.3v-1.6c0-0.4,0-0.8-0.1-1.2c0.4,0,0.9,0.1,1.7,0.1L175.9,25.6L175.9,25.6z M177.4,29v-1.4h-2.2V29H177.4z
			 M182.2,21.5c-1.8,0-2.8,0-3.4,0.1v-1c0.6,0.1,1.6,0.1,2.6,0.1s2,0,2.5-0.1c-0.1,0.2-0.3,0.4-0.5,0.7c-0.6,0.8-1.1,1.4-1.7,2.2
			c0.2,0.1,0.3,0.3,0.5,0.4l-0.7,0.6c-0.6-0.6-1.2-1-1.9-1.4l0.6-0.7c0.3,0.2,0.6,0.4,0.9,0.6L182.2,21.5z M181.8,29.7
			c0,0.8-0.3,1-2,1.2c0-0.5-0.2-0.9-0.6-1.3c1.3,0.3,1.6,0.1,1.6-0.4v-3.9c-0.8,0-1.5,0-1.9,0.1v-1c0.5,0.1,1.5,0.1,2.8,0.1
			s2.3-0.1,2.7-0.1l-0.7,2.4l-1.1-0.3l0.5-1.2h-1.4L181.8,29.7L181.8,29.7z"/>
		<path class="st2" d="M186.5,31.1c-0.2-0.4-0.4-0.6-0.8-0.9c3.4-1.1,4.5-2.1,4.8-3.6c0.2-1,0.3-2.2,0.3-4.8c-2.1,0-3.5,0-4.7,0.1
			v-1c1.2,0.1,2.6,0.1,4.7,0.1c0-0.6,0-0.9-0.1-1.3c0.3,0.1,0.6,0.1,1.3,0.1c0.3,0,0.3,0.1,0,0.3c-0.1,0.1-0.2,0.2-0.2,0.9
			c2,0,3.4,0,4.5-0.1v1c-1.1-0.1-2.5-0.1-4.5-0.1c-0.1,2-0.1,3.2-0.2,4c0.5,2.3,2.1,3.3,5,3.8c-0.3,0.5-0.4,0.8-0.5,1.2
			c-2.7-0.7-4.1-1.9-4.8-3.7C190.8,29,189.6,30,186.5,31.1z M189.4,22.5c0.2,0.2,0.5,0.4,0.7,0.5s0.2,0.1-0.1,0.2
			c-0.1,0-0.4,0.3-0.9,0.8c0.3,0.2,0.6,0.5,0.9,0.7l-0.5,0.6c-0.3-0.3-0.6-0.6-0.9-0.8c-0.4,0.4-1,0.7-1.5,1
			c-0.2-0.2-0.4-0.4-0.7-0.5c0.6-0.3,1.1-0.6,1.5-1c-0.4-0.3-0.8-0.5-1.2-0.8l0.6-0.5c0.4,0.3,0.8,0.5,1.2,0.8
			C188.8,23.2,189.1,22.9,189.4,22.5z M189.1,25.4c0.3,0.2,0.6,0.4,0.8,0.5s0.2,0.2-0.1,0.2c-0.1,0-0.5,0.4-1,0.9
			c0.2,0.2,0.5,0.4,0.7,0.5l-0.5,0.6c-0.2-0.2-0.4-0.4-0.7-0.6c-0.4,0.4-0.8,0.7-1.2,0.9c-0.2-0.2-0.4-0.4-0.7-0.5
			c0.5-0.3,0.9-0.6,1.3-0.9c-0.2-0.2-0.5-0.4-0.8-0.5l0.6-0.5c0.2,0.2,0.5,0.3,0.8,0.5C188.5,26.2,188.8,25.9,189.1,25.4z
			 M194.7,22.3c0.3,0.2,0.5,0.4,0.8,0.5c0.2,0.1,0.2,0.2-0.1,0.2c-0.1,0-0.4,0.2-0.8,0.6c0.3,0.3,0.7,0.5,1.1,0.9l-0.6,0.6
			c-0.4-0.4-0.7-0.7-1.1-1c-0.4,0.3-0.9,0.7-1.3,0.9c-0.2-0.2-0.4-0.4-0.6-0.5c0.5-0.3,0.9-0.6,1.2-0.9c-0.3-0.2-0.6-0.4-0.9-0.6
			l0.5-0.5c0.3,0.2,0.6,0.4,0.9,0.6C194.2,22.8,194.4,22.6,194.7,22.3z M196.1,27.6l-0.6,0.6c-0.3-0.3-0.6-0.6-1-0.9
			c-0.3,0.3-0.6,0.5-1,0.8c-0.2-0.2-0.4-0.5-0.7-0.6c0.4-0.3,0.7-0.5,1-0.8c-0.4-0.3-0.8-0.6-1.1-0.9l0.5-0.5
			c0.4,0.3,0.8,0.6,1.2,0.9c0.2-0.2,0.5-0.5,0.7-0.8c0.2,0.2,0.4,0.4,0.7,0.5c0.2,0.1,0.2,0.2,0,0.2s-0.3,0.1-0.8,0.5
			C195.4,27.1,195.8,27.4,196.1,27.6z"/>
		<path class="st2" d="M133.1,34.9c0-0.5,0-1-0.1-1.5c0.5,0.1,0.9,0.1,1.3,0.1c0.3,0,0.3,0.1,0.1,0.2c-0.2,0.1-0.2,0.2-0.2,0.4v3.8
			h1.9c0.9,0,1.8,0,2.7-0.1V39c-0.8-0.1-1.7-0.1-2.7-0.1h-0.9v3.8c0,0.5,0.2,0.6,1.2,0.6c1.4,0,1.5-0.1,1.7-1.5
			c0.4,0.5,0.7,0.6,1.1,0.7c-0.4,1.6-0.7,1.8-2.9,1.8c-2,0-2.2-0.1-2.2-1.1V39h-1.4c0,3.4-0.6,4.4-3.7,5.7c-0.2-0.4-0.4-0.8-0.8-1.1
			c2.9-0.8,3.4-1.8,3.5-4.7h-0.5c-0.9,0-1.8,0-2.7,0.1v-1.2c0.8,0.1,1.7,0.1,2.7,0.1h1.9L133.1,34.9L133.1,34.9z M130.9,37.4
			c-0.3-0.9-0.7-1.6-1.2-2.2l1-0.5c0.5,0.7,0.9,1.3,1.3,2.2L130.9,37.4z M137.8,35.3c-0.2,0-0.6,0.6-1.6,2.2c-0.2-0.3-0.6-0.4-1-0.5
			c0.6-0.6,1.1-1.5,1.5-2.5c0.4,0.3,0.9,0.6,1.1,0.6C137.9,35.1,138,35.2,137.8,35.3z"/>
		<path class="st2" d="M141.4,44c-0.3-0.3-0.6-0.5-1-0.6c1.1-0.8,2-1.7,2.8-3.3c-1,0-1.8,0-2.4,0.1v-1c0.7,0.1,1.6,0.1,2.7,0.1
			c0-0.4-0.1-0.8-0.1-1.1c0.4,0,0.9,0.1,1.2,0c0.2,0,0.3,0,0.1,0.2c-0.1,0.1-0.2,0.4-0.2,0.8c1.2,0,2,0,2.6-0.1v1
			c-0.6,0-1.5-0.1-2.6-0.1v2.5c0,0.7,0,1.6,0.1,2.2h-1.1c0.1-0.5,0.1-1.5,0.1-2.2v-1.7C142.9,42.1,142.3,43,141.4,44z M147.1,34.8
			c-0.4,0-0.8,0-2.9,0.4c-1.2,0.2-2.4,0.4-3,0.5c-0.1-0.3-0.2-0.7-0.3-0.9c0.6,0,1.4-0.1,2.9-0.4c0.9-0.2,2-0.5,2.8-0.7
			c0.1,0.4,0.4,0.7,0.6,0.9C147.3,34.7,147.3,34.8,147.1,34.8z M141.6,38.1c-0.1-0.7-0.2-1.2-0.4-1.8l0.9-0.2
			c0.2,0.6,0.4,1.1,0.5,1.8L141.6,38.1z M143.6,37.7c-0.1-0.7-0.2-1.1-0.4-1.7l0.9-0.2c0.2,0.6,0.3,1.1,0.5,1.7L143.6,37.7z
			 M146.4,42.9c-0.6-0.6-1.1-1-1.8-1.5l0.6-0.6c0.7,0.4,1.2,0.8,1.9,1.3L146.4,42.9z M146,37.9c-0.2-0.1-0.5-0.2-0.8-0.3
			c0.4-0.7,0.7-1.4,0.9-2.2c0.4,0.2,0.8,0.3,1,0.3s0.2,0.1,0,0.2C146.9,36.2,146.6,36.7,146,37.9z M151.4,41.7
			c-0.2,0.1-0.5,0.2-1,0.7c-1.4,1.2-1.8,1.5-3.5,2.5c-0.1-0.2-0.5-0.6-0.8-0.9c2.1-0.9,3.4-1.9,4.4-3.4c0.3,0.3,0.8,0.8,0.9,0.8
			C151.6,41.5,151.6,41.6,151.4,41.7z M151.1,38.2c-0.1,0-0.7,0.4-1,0.8c-0.4,0.5-1.8,1.7-2.6,2.2c-0.2-0.3-0.4-0.5-0.7-0.7
			c1.6-0.9,2.9-2.3,3.4-3.3c0.1,0.2,0.6,0.6,0.9,0.8C151.3,38,151.3,38.1,151.1,38.2z M151,34.7c-0.1,0-0.4,0.2-0.9,0.8
			c-0.6,0.6-1.6,1.6-2.2,2.1c-0.3-0.3-0.5-0.5-0.8-0.6c1.1-0.7,2.5-2.2,2.9-3.3c0.3,0.2,0.8,0.6,1.1,0.7
			C151.3,34.6,151.3,34.7,151,34.7z"/>
		<path class="st2" d="M152.9,38.5v-1c0.6,0.1,1.3,0.1,2.6,0.1c0.9,0,1.7,0,2.4-0.1v1c-0.6,0-1.2-0.1-2-0.1c-0.6,1.5-1.2,3-1.5,3.5
			l2.6-0.6c-0.2-0.5-0.4-0.9-0.6-1.2l0.9-0.4c0.2,0.7,0.8,1.9,1.2,2.6l-1,0.5c0-0.2-0.1-0.4-0.2-0.7c-2.4,0.6-3.3,1-3.7,1.3
			c-0.1-0.4-0.3-0.9-0.5-1.2c0.5-0.2,0.7-0.5,1-1.3c0.4-0.8,0.7-1.7,0.8-2.4C153.9,38.4,153.3,38.4,152.9,38.5z M155.7,35.7
			c-1.3,0-1.8,0-2.2,0.1v-1.1c0.4,0.1,0.9,0.1,2.2,0.1c1,0,1.4,0,1.9-0.1v1.1C157.2,35.8,156.6,35.7,155.7,35.7z M159.9,33.4
			c0.4,0.1,0.8,0.2,1.3,0.2c0.2,0,0.3,0,0.1,0.2c-0.1,0.2-0.3,0.5-0.4,2.1c1,0,2.4-0.1,2.8-0.2c-0.1,0.3-0.2,0.9-0.2,1.5l-0.2,4.7
			c-0.1,1.9-0.4,2.2-2.2,2.5c-0.1-0.5-0.3-0.9-0.7-1.3c1.4,0.1,1.8,0,1.8-0.8l0.3-5.6h-1.7c-0.1,1-0.1,1.9-0.3,2.9
			c-0.3,2.2-0.8,3.3-3,5c-0.2-0.3-0.6-0.6-1.2-0.8c1.9-1,2.8-1.8,3.1-3.6c0.2-0.8,0.3-2.2,0.4-3.5c-0.8,0-1.6,0.1-2.1,0.2v-1.1
			c0.5,0.1,1.2,0.1,2.2,0.1C160,34.9,160,34,159.9,33.4z"/>
		<path class="st2" d="M166.3,44.4c-0.3-0.4-0.6-0.6-1-0.8c2.4-1.2,4.1-3.4,4.6-5.8c0.3-1.3,0.4-2.5,0.2-4c0.5,0.1,1.2,0.1,1.7,0.1
			c0.1,0,0.2,0.1,0.1,0.2c-0.1,0.1-0.3,0.6-0.3,0.8c-0.1,0.7-0.1,1.2-0.2,1.8c0.4,2.3,1.3,4,2.6,5c0.9,0.7,1.5,1.1,2.6,1.4
			c-0.5,0.4-0.7,0.7-0.9,1.3c-1-0.6-1.9-1.2-2.7-2c-1.1-1.1-1.6-2.1-2-4.1C170,41.3,168.6,42.9,166.3,44.4z"/>
		<path class="st2" d="M177.8,43c0-0.6,0.4-1,0.9-1c0.6,0,0.9,0.4,0.9,1c0,0.5-0.4,1-0.9,1C178.1,44,177.8,43.5,177.8,43z M179.3,41
			h-1.1l-0.2-6.7h1.6L179.3,41z"/>
	</g>
	<g class="st1">
		<path class="st2" d="M218.5,12.6c-0.3-0.4-0.9-0.8-1.3-1.1l0.5-0.6c0.4,0.2,1,0.7,1.3,1L218.5,12.6z M218.7,14.9
			c-0.2,0.5-0.4,1-0.6,1.5c-0.3-0.2-0.6-0.4-0.9-0.5c0.2-0.4,0.5-0.9,0.8-1.5c0.2-0.4,0.4-0.9,0.5-1.3c0.1,0.2,0.4,0.4,0.7,0.5
			C219,14,218.9,14.3,218.7,14.9z M218.9,10.4c-0.3-0.4-0.8-0.8-1.2-1.1l0.5-0.6c0.4,0.3,0.9,0.7,1.2,1L218.9,10.4z M224.8,11.4v0.8
			c-0.5-0.1-1.5-0.1-2.5-0.1s-1.9,0-2.5,0.1v-0.8c0.5,0.1,1.3,0.1,2.1,0.1v-1.1c-0.9,0-1.8,0-2.2,0.1V9.6c0.5,0.1,1.4,0.1,2.2,0.1
			c0-0.7,0-1-0.1-1.3c0.3,0.1,0.7,0.1,0.8,0.1c0.2,0,0.2,0.1,0,0.2c0,0-0.1,0.1-0.1,0.2v0.8c1,0,1.9,0,2.5-0.1v0.8
			c-0.5-0.1-1.5-0.1-2.5-0.1v1.1C223.5,11.4,224.3,11.4,224.8,11.4z M220.9,15.6v0.9H220c0.1-0.4,0.1-1.1,0.1-1.4V14
			c0-0.3,0-0.8-0.1-1c0.4,0,1.1,0.1,2.4,0.1c1.2,0,1.7,0,2.1-0.1c0,0.3-0.1,0.6-0.1,1v1c0,0.4,0,0.9,0.1,1.4h-0.8v-0.7L220.9,15.6
			L220.9,15.6z M223.7,15v-1.4h-2.9V15H223.7z"/>
		<path class="st2" d="M229,10c0.3,0.1,0.4,0.2,0.7,0.2c0.1,0,0.1,0,0,0.1c-0.1,0-0.2,0.2-0.5,0.7c0.4,0,0.7,0,0.9-0.1v0.7
			c-0.2,0-0.6-0.1-1.1-0.1h-1.6c0,2.3-0.1,3.2-0.6,4.6c-0.1-0.2-0.4-0.5-0.6-0.7c0.5-0.8,0.6-1.8,0.5-4.5c0.2,0,0.5,0.1,1,0.1h0.9
			C228.8,10.7,228.9,10.3,229,10z M227.9,8.3l0.8-0.1c0.1,0.3,0.2,0.6,0.2,1c0.4,0,0.8,0,1.1-0.1v0.7c-0.4,0-0.9-0.1-1.7-0.1
			s-1.3,0-1.8,0.1V9.1c0.4,0.1,0.9,0.1,1.6,0.1C228.1,8.9,228.1,8.6,227.9,8.3z M227.4,11c0-0.3-0.1-0.5-0.2-0.7l0.6-0.2
			c0.1,0.2,0.2,0.4,0.3,0.7L227.4,11z M230.1,14.5c-0.1,0-0.2,0.1-0.6,0.4c-0.6,0.6-1.1,0.9-1.7,1.2c-0.1-0.2-0.4-0.4-0.6-0.6
			c0.9-0.3,1.7-0.8,2.3-1.7c0.1,0.2,0.4,0.4,0.6,0.5C230.3,14.4,230.2,14.5,230.1,14.5z M229.3,12.1c-0.1,0-0.2,0.1-0.5,0.4
			c-0.3,0.3-0.6,0.5-0.9,0.7c-0.1-0.1-0.2-0.3-0.4-0.4c0.5-0.3,1-0.7,1.4-1.1c0.1,0.2,0.3,0.3,0.5,0.4
			C229.5,12.1,229.5,12.1,229.3,12.1z M229.9,13.2c-0.1,0-0.3,0.1-0.6,0.4c-0.3,0.3-0.8,0.7-1.2,1c-0.1-0.2-0.3-0.4-0.5-0.5
			c0.9-0.2,1.5-0.9,1.9-1.4c0.1,0.2,0.4,0.3,0.5,0.4C230,13.1,230,13.1,229.9,13.2z M232.4,12.4c0,0.6,0,1.1-0.2,1.6
			c-0.2,1.1-0.9,1.9-2.4,2.5c-0.1-0.2-0.4-0.5-0.6-0.6c1.2-0.3,1.9-0.6,2.3-1.5c0.2-0.5,0.3-1.9,0.2-2.6c0.3,0.1,0.6,0.1,0.8,0.1
			c0.1,0,0.1,0,0,0.1C232.5,11.9,232.4,12.1,232.4,12.4z M230.4,9.4V8.7c0.4,0.1,1,0.1,1.9,0.1s1.5,0,1.9-0.1v0.7
			c-0.4-0.1-1-0.1-1.7-0.1c-0.1,0.4-0.2,0.7-0.2,1.1c0.8,0,1.3,0,1.7-0.1c0,0.2,0,0.5,0,1.1v1.7c0,0.4,0,0.8,0.1,1.1h-0.8V11h-2v3.3
			h-0.8c0-0.4,0.1-0.7,0.1-1.1v-1.7c0-0.7,0-0.9,0-1.1c0.3,0,0.7,0.1,1.1,0.1c0.1-0.4,0.1-0.7,0.1-1.1
			C231.1,9.3,230.7,9.4,230.4,9.4z M233.7,16.4c-0.4-0.4-0.9-0.9-1.4-1.2l0.5-0.5c0.5,0.3,1.1,0.8,1.5,1.2L233.7,16.4z"/>
		<path class="st2" d="M237.4,12.4c0.3,0.1,0.6,0.1,0.9,0.1c0.1,0,0.1,0.1,0,0.1c-0.1,0.1-0.2,0.2-0.3,0.6c-0.2,0.8-0.3,1.2-0.4,1.6
			c0.4-0.1,0.8-0.2,1.1-0.2c-0.1,0.2-0.1,0.5,0,0.6c-0.8,0.1-2.2,0.4-3,0.6c0-0.2-0.1-0.6-0.3-0.8c0.5,0,1.1-0.1,1.6-0.1
			C237.3,14.1,237.4,13.1,237.4,12.4z M240.2,9.3c0-0.2,0-0.6-0.1-0.9c0.2,0,0.6,0.1,0.8,0.1c0.1,0,0.1,0.1,0,0.1
			c-0.1,0.1-0.1,0.1-0.1,0.2v0.5c0.9,0,1.7,0,2.2-0.1V10c-0.6-0.1-1.3-0.1-2.2-0.1v0.6h-0.7V9.9h-1.9v0.7h-0.7V9.9
			c-0.7,0-1.6,0-2.2,0.1V9.2c0.6,0.1,1.3,0.1,2.2,0.1c0-0.2,0-0.6-0.1-0.9c0.2,0,0.6,0.1,0.8,0.1c0.1,0,0.1,0.1,0,0.1
			c-0.1,0.1-0.1,0.1-0.1,0.2v0.5C238.3,9.3,240.2,9.3,240.2,9.3z M238.8,12.7c-0.1-0.1-0.3-0.2-0.5-0.3l0.1-0.1c-0.4,0-0.8,0-1.4,0
			c-0.7,0-1.1,0-1.4,0v-0.7c0.4,0,0.8,0,1.4,0c0.7,0,1.1,0,1.4,0v0.6c0.6-0.6,0.9-1,1.1-1.9c0.2,0.1,0.6,0.2,0.8,0.3
			c0.1,0,0.1,0.1,0,0.1s-0.2,0.2-0.3,0.3s-0.1,0.2-0.2,0.3h1.6c0.5,0,1,0,1.3-0.1c-0.1,0.8-0.2,2.6-0.2,3.9c0,1-0.3,1.2-1.5,1.3
			c0-0.2-0.1-0.6-0.4-0.9c1,0.1,1.1,0.1,1.2-0.4c0.1-0.6,0.2-1.8,0.2-3.4h-2.5C239.2,12.2,239,12.4,238.8,12.7z M236.2,14.6
			c-0.1-0.7-0.1-1.2-0.3-1.8l0.7-0.1c0.1,0.6,0.2,1.1,0.3,1.8L236.2,14.6z M236.8,11.4c0-0.3-0.1-0.6-0.2-0.9l0.7-0.1
			c0.1,0.3,0.1,0.6,0.2,0.9L236.8,11.4z M239.6,14.8v0.7h-0.7c0.1-0.2,0.1-0.4,0.1-0.6v-1.6c0-0.3,0-0.5,0-0.6c0.4,0,0.8,0,1.2,0
			s0.8,0,1.1,0c0,0.1,0,0.3,0,0.6v1.3c0,0.2,0,0.4,0.1,0.6h-0.7v-0.4H239.6z M240.6,14.3v-1.1h-1v1.1H240.6z"/>
		<path class="st2" d="M249.2,9.1c0-0.3,0-0.5,0-0.7c0.2,0,0.5,0,0.8,0c0.1,0,0.2,0.1,0,0.1c-0.1,0-0.1,0.1-0.1,0.1v0.5
			c0.9,0,1.8,0,2.3-0.1v0.7c-0.6,0-1.4-0.1-2.3-0.1v0.6h-0.7V9.8h-1.9v0.6h-0.7V9.8c-0.9,0-1.8,0-2.3,0.1V9.1c0.6,0,1.2,0.1,2.3,0.1
			V9.1c0-0.3,0-0.4,0-0.7c0.2,0,0.5,0,0.8,0c0.1,0,0.2,0.1,0,0.1c-0.1,0-0.1,0.1-0.1,0.1v0.5L249.2,9.1L249.2,9.1z M244.6,16
			c0-0.3-0.1-0.5-0.3-0.7c0.4-0.1,1.7-0.5,2.8-0.9v-1h-1.5c-0.3,0-0.6,0-0.8,0.1c0-0.6,0-1.2,0-1.8c0.2,0,0.5,0.1,0.8,0.1h1.5v-0.7
			h-1.6c-0.3,0-0.6,0-0.9,0.1v-0.6c0.8,0.1,2.4,0.1,3.1,0c-0.1,0.6-0.1,1.2,0,1.8c-0.2,0-0.5,0-0.8,0h-1.6V13h1.7
			c0.3,0,0.5,0,0.7-0.1c0,0.1-0.1,0.3-0.1,0.7v2c0,0.6-0.1,0.7-1.5,0.9c0-0.3-0.1-0.5-0.3-0.8c0.8,0.1,1.1,0,1.1-0.4v-0.4
			C246,15.4,245,15.8,244.6,16z M245.7,14.8c-0.2-0.2-0.6-0.7-0.8-0.9l0.6-0.4c0.2,0.2,0.5,0.5,0.8,0.8L245.7,14.8z M248.5,15.7
			c-0.1-0.2-0.2-0.5-0.3-0.7c1.1-0.2,2-0.5,2.9-0.8v-0.9h-1.8c-0.3,0-0.5,0-0.7,0c0-0.6,0-1.2,0-1.8c0.3,0,0.4,0,0.7,0h1.7V11h-1.7
			c-0.3,0-0.6,0-0.9,0.1v-0.6c0.9,0.1,2.6,0.1,3.3,0c-0.1,0.6-0.1,1.2,0,1.8c-0.2,0-0.5-0.1-0.8-0.1h-1.7v0.6h1.8c0.3,0,0.6,0,0.8,0
			c0,0.1,0,0.3,0,0.6v2.1c0,0.6-0.2,0.8-1.6,1c0-0.2-0.1-0.6-0.4-0.9c1,0.2,1.3,0.1,1.3-0.3v-0.5C249.9,15.2,248.9,15.5,248.5,15.7z
			 M249.3,14.7c-0.1-0.3-0.5-0.6-0.7-0.9l0.6-0.3c0.2,0.2,0.5,0.6,0.7,0.8L249.3,14.7z"/>
		<path class="st2" d="M254.6,14.7c-0.2,0.6-0.4,1.1-0.5,1.6c-0.3-0.2-0.6-0.5-0.9-0.6c0.2-0.4,0.4-0.6,0.7-1.4
			c0.3-0.7,0.3-1,0.5-1.4c0.1,0.2,0.4,0.4,0.7,0.6C254.9,13.8,254.8,14.1,254.6,14.7z M254.7,12.2c-0.3-0.3-0.9-0.7-1.4-0.9l0.4-0.6
			c0.4,0.2,1,0.6,1.4,0.9L254.7,12.2z M255.1,10.1c-0.3-0.3-0.9-0.8-1.3-1.1l0.6-0.5c0.4,0.3,0.9,0.8,1.3,1.1L255.1,10.1z
			 M255.8,11.3c-0.2-0.1-0.4-0.3-0.7-0.3c0.6-0.6,1.5-1.9,1.8-2.8c0.2,0.1,0.7,0.3,0.9,0.3c0.1,0,0.1,0.1,0,0.2
			c-0.1,0-0.2,0.1-0.5,0.6h2.5c0.6,0,1,0,1.3-0.1v0.7c-0.3,0-0.8-0.1-1.3-0.1h-2.9c-0.2,0.2-0.4,0.5-0.5,0.8h2.1c0.8,0,1.5,0,2-0.1
			l-0.1,2.1c0.4,0,0.7,0,0.9-0.1v0.7c-0.2,0-0.6-0.1-1-0.1l-0.1,1.5c0.3,0,0.6,0,0.7-0.1v0.7c-0.2,0-0.4-0.1-0.8-0.1
			c0,0.9-0.1,1.1-1.4,1.3c0-0.3-0.2-0.5-0.4-0.8c0.9,0,1-0.1,1.1-0.6h-2.2c-0.7,0-1,0-1.4,0.1l0.2-2.2c-0.3,0-0.6,0-0.8,0.1v-0.7
			c0.2,0,0.6,0,0.9,0.1l0.2-1.9C256.2,10.9,256,11.1,255.8,11.3z M256.8,13.2l-0.2,1.6h2.9l0.1-1.6H256.8z M259.6,12.6l0.1-1.5H257
			l-0.2,1.5H259.6z M257.9,14.6c0-0.2-0.2-0.8-0.3-1l0.7-0.2c0.1,0.3,0.3,0.8,0.4,1L257.9,14.6z M258.1,12.4c0-0.2-0.2-0.6-0.3-0.9
			l0.7-0.2c0.1,0.3,0.3,0.6,0.4,0.9L258.1,12.4z"/>
		<path class="st2" d="M265.4,15.2c-1.6,0.3-2.4,0.5-2.8,0.7c0-0.3-0.1-0.6-0.3-0.9c0.5,0,1.3,0,3.2-0.5
			C265.4,14.8,265.4,15,265.4,15.2z M262.6,11.9c0-0.2-0.1-0.5-0.2-0.7c0.4-0.3,1-1.4,1.4-2.7c0.3,0.2,0.8,0.4,0.9,0.4
			c0.2,0.1,0.2,0.1,0,0.2s-0.2,0.1-1.4,2.1l1.3-0.1c0.2-0.3,0.4-0.7,0.4-0.9c0.2,0.2,0.5,0.4,0.7,0.5c0.1,0,0.1,0.1,0,0.2
			c-0.1,0-0.3,0.3-1.9,2.4l1.7-0.2c-0.1,0.2-0.1,0.5-0.1,0.7c-1.7,0.1-2.1,0.2-2.5,0.4c0-0.3-0.1-0.6-0.2-0.8
			c0.4-0.1,0.9-0.6,1.6-1.7C263.4,11.7,262.9,11.8,262.6,11.9z M267.2,8.2c0.2,0.1,0.6,0.2,0.8,0.2c0.1,0,0.1,0.1,0,0.1
			c-0.1,0.1-0.2,0.3-0.5,0.7h0.7c0.6,0,1.1,0,1.5-0.1c0,0.1,0,0.4,0,0.6v1.8c0,0.2,0,0.5,0,0.6c-0.4,0-0.8,0-1.7,0v0.7
			c0.7,0,1.4,0,2,0c0,0.1,0,0.3,0,0.5v1.9c0,0.5-0.2,0.6-1.1,0.8c-0.1-0.3-0.2-0.6-0.3-0.8c0.7,0.1,0.8,0,0.8-0.2v-1.5h-1.2v1.4
			c0,0.5,0,1.1,0.1,1.6h-0.8c0-0.6,0.1-1.1,0.1-1.6v-1.4h-1v2.4h-0.8c0-0.5,0.1-0.8,0.1-1.2v-1.2c0-0.2,0-0.4,0-0.5
			c0.5,0,1.1,0,1.8,0v-0.7c-0.9,0-1.2,0-1.5,0c0-0.1,0-0.3,0-0.6V9.9c0-0.2,0-0.5,0-0.6c0.3,0,0.6,0.1,1.1,0.1
			C267.1,8.9,267.2,8.6,267.2,8.2z M269,9.8h-2.4v0.7h2.4V9.8z M269,11h-2.4v0.7h2.4V11z"/>
		<path class="st2" d="M274.2,15.3c-1.6,0.3-2.3,0.6-2.8,0.9c0-0.3-0.1-0.5-0.2-0.9c0.5-0.1,2-0.4,3-0.6
			C274.1,14.8,274.1,15.1,274.2,15.3z M272.1,11.8c-0.3,0-0.5,0.1-0.7,0.1c0-0.2-0.1-0.6-0.2-0.7c0.4-0.2,0.9-1.2,1.5-2.7
			c0.3,0.2,0.6,0.3,0.8,0.4c0.2,0,0.2,0.1,0,0.2c-0.1,0.1-0.2,0.2-1.5,2.2l1.2-0.1c0.2-0.4,0.5-1,0.6-1.3c0.2,0.1,0.6,0.3,0.7,0.4
			c0.1,0,0.1,0.1,0,0.2c-0.1,0.1-0.2,0.2-2,3c0.6,0,1.1-0.1,1.6-0.2c-0.1,0.2-0.1,0.4-0.1,0.7l-1.7,0.1c-0.3,0-0.7,0.1-0.8,0.2
			c0-0.3-0.1-0.4-0.2-0.7c0.5-0.3,1-0.8,1.6-1.8L272.1,11.8z M279.3,15.4v0.7c-0.3,0-0.8,0-2.7,0c-1.7,0-2.3,0-2.5,0v-0.7
			c0.2,0,0.5,0,0.8,0V9.7c0-0.4,0-0.7,0-0.9c0.3,0,1.2,0,1.9,0c0.6,0,1.6,0,1.9,0c0,0.2,0,0.5,0,0.9v5.7
			C278.9,15.4,279.2,15.4,279.3,15.4z M277.8,11.1V9.5h-2.3V11C275.5,11,277.8,11,277.8,11.1z M277.8,13.1v-1.5h-2.3v1.5H277.8z
			 M275.6,13.8v1.6h2.3v-1.6H275.6z"/>
	</g>
</g>
<g>
	<g>
		<g>
			<g>
				<g>
					<path class="st36" d="M291.1,30.8h-51.9V30h51.9V30.8z"/>
				</g>
			</g>
		</g>
	</g>
</g>
<g id="Vector_Smart_Object_1_">
	<g>
		<g>
			<defs>
				<rect id="SVGID_65_" x="7.2" y="22.2" width="64.6" height="5.8"/>
			</defs>
			<clipPath id="SVGID_66_">
				<use xlink:href="#SVGID_65_"  style="overflow:visible;"/>
			</clipPath>
			<polygon class="st37" points="13.6,22.4 11,25.7 8.3,22.4 7.2,22.4 7.2,27.8 8.1,27.8 8.1,23.4 8.1,23.4 11,26.9 13.8,23.4 
				13.8,23.4 13.8,27.8 14.7,27.8 14.7,22.4 			"/>
		</g>
		<g>
			<defs>
				<rect id="SVGID_67_" x="7.2" y="22.2" width="64.6" height="5.8"/>
			</defs>
			<clipPath id="SVGID_68_">
				<use xlink:href="#SVGID_67_"  style="overflow:visible;"/>
			</clipPath>
			<g class="st38">
				<g>
					<defs>
						<rect id="SVGID_69_" x="7.2" y="22.2" width="64.6" height="5.8"/>
					</defs>
					<clipPath id="SVGID_70_">
						<use xlink:href="#SVGID_69_"  style="overflow:visible;"/>
					</clipPath>
					<path class="st39" d="M26.3,25.1c0,0.9-0.4,1.6-1.1,2.2c-0.6,0.5-1.4,0.7-2.4,0.7s-1.8-0.2-2.4-0.7c-0.7-0.6-1.1-1.3-1.1-2.2
						c0-0.9,0.4-1.6,1.1-2.2c0.7-0.5,1.5-0.7,2.4-0.7c1,0,1.7,0.2,2.4,0.7C25.9,23.5,26.3,24.2,26.3,25.1 M25.4,25.1
						c0-0.6-0.3-1.2-0.8-1.6c-0.5-0.3-1-0.5-1.7-0.5c-0.8,0-1.4,0.2-1.9,0.6s-0.7,0.9-0.7,1.5s0.2,1.1,0.7,1.5s1.1,0.6,1.9,0.6
						s1.4-0.2,1.9-0.6C25.1,26.2,25.4,25.7,25.4,25.1"/>
				</g>
				<g>
					<defs>
						<rect id="SVGID_71_" x="7.2" y="22.2" width="64.6" height="5.8"/>
					</defs>
					<clipPath id="SVGID_72_">
						<use xlink:href="#SVGID_71_"  style="overflow:visible;"/>
					</clipPath>
					<polygon class="st40" points="36.2,23.2 33.6,23.2 33.6,27.8 32.7,27.8 32.7,23.2 30.1,23.2 30.1,22.4 36.2,22.4 					"/>
				</g>
				<g>
					<defs>
						<rect id="SVGID_73_" x="7.2" y="22.2" width="64.6" height="5.8"/>
					</defs>
					<clipPath id="SVGID_74_">
						<use xlink:href="#SVGID_73_"  style="overflow:visible;"/>
					</clipPath>
					<rect x="40.3" y="22.4" class="st41" width="0.9" height="5.5"/>
				</g>
				<g>
					<defs>
						<rect id="SVGID_75_" x="7.2" y="22.2" width="64.6" height="5.8"/>
					</defs>
					<clipPath id="SVGID_76_">
						<use xlink:href="#SVGID_75_"  style="overflow:visible;"/>
					</clipPath>
					<polygon class="st42" points="52.1,22.4 49.2,27.8 48.1,27.8 45.2,22.4 46.2,22.4 48.6,26.9 51.1,22.4 					"/>
				</g>
				<g>
					<defs>
						<rect id="SVGID_77_" x="7.2" y="22.2" width="64.6" height="5.8"/>
					</defs>
					<clipPath id="SVGID_78_">
						<use xlink:href="#SVGID_77_"  style="overflow:visible;"/>
					</clipPath>
					<polygon class="st43" points="61.8,27.8 56.1,27.8 56.1,22.4 61.6,22.4 61.6,23.2 57,23.2 57,24.6 60.2,24.6 60.2,25.4 
						57,25.4 57,27 61.8,27 					"/>
				</g>
				<g>
					<defs>
						<rect id="SVGID_79_" x="7.2" y="22.2" width="64.6" height="5.8"/>
					</defs>
					<clipPath id="SVGID_80_">
						<use xlink:href="#SVGID_79_"  style="overflow:visible;"/>
					</clipPath>
					<path class="st44" d="M71,23.7c-0.8-0.4-1.6-0.6-2.5-0.6c-0.6,0-1,0.1-1.3,0.2s-0.4,0.3-0.4,0.5s0.2,0.4,0.5,0.5
						c0.2,0.1,0.6,0.1,1.1,0.2c0.8,0.1,1.3,0.1,1.5,0.1c0.7,0.1,1.2,0.3,1.5,0.5s0.5,0.6,0.5,1c0,0.6-0.3,1-0.8,1.3
						s-1.3,0.5-2.2,0.5c-1.4,0-2.5-0.3-3.3-0.9l0.5-0.7c0.9,0.5,1.8,0.8,2.8,0.8c0.6,0,1.1-0.1,1.5-0.3c0.3-0.2,0.5-0.4,0.5-0.7
						c0-0.3-0.2-0.6-0.7-0.7c-0.2-0.1-0.9-0.1-1.9-0.2c-0.9-0.1-1.5-0.2-1.9-0.4c-0.4-0.2-0.6-0.6-0.6-1.1s0.2-0.9,0.7-1.2
						c0.5-0.3,1.2-0.4,2-0.4c1.2,0,2.2,0.3,3,0.8L71,23.7z"/>
				</g>
			</g>
		</g>
	</g>
</g>
<g>
	<path d="M95.7,14.3h-3.3v-1h7.7v1h-3.3v8.8h-1.1V14.3z"/>
	<path d="M102.1,13.3h1.1v4.4h5.7v-4.4h1.1v9.8h-1.1v-4.4h-5.7v4.4h-1.1V13.3z"/>
	<path d="M112.8,13.3h7.1v1h-6v3.3h5.4v1h-5.4v3.4h6.1v1h-7.2V13.3z"/>
	<path d="M125.9,18.2L125.9,18.2c0-2.8,2.1-5.1,5-5.1c1.8,0,2.8,0.6,3.8,1.6l-0.8,0.8c-0.8-0.8-1.8-1.3-3.1-1.3
		c-2.2,0-3.8,1.8-3.8,4v0c0,2.3,1.6,4,3.8,4c1.3,0,2.2-0.5,3.2-1.4l0.7,0.7c-1,1-2.1,1.7-3.9,1.7C128,23.2,125.9,21,125.9,18.2z"/>
	<path d="M136,18.2L136,18.2c0-2.7,2-5.1,5-5.1c3,0,5,2.3,5,5c0,0,0,0,0,0c0,2.7-2,5.1-5,5.1S136,20.9,136,18.2z M144.8,18.2
		L144.8,18.2c0-2.3-1.6-4.1-3.9-4.1s-3.8,1.8-3.8,4v0c0,2.2,1.6,4,3.9,4S144.8,20.4,144.8,18.2z"/>
	<path d="M148.3,13.3h1l6.2,7.9v-7.9h1.1v9.8h-0.9l-6.3-8v8h-1.1V13.3z"/>
	<path d="M158.9,18.2L158.9,18.2c0-2.8,2.1-5.1,5-5.1c1.8,0,2.8,0.6,3.8,1.6l-0.8,0.8c-0.8-0.8-1.8-1.3-3.1-1.3
		c-2.2,0-3.8,1.8-3.8,4v0c0,2.3,1.6,4,3.8,4c1.3,0,2.2-0.5,3.2-1.4l0.7,0.7c-1,1-2.1,1.7-3.9,1.7C161,23.2,158.9,21,158.9,18.2z"/>
	<path d="M169.7,13.3h7.1v1h-6v3.3h5.4v1h-5.4v3.4h6.1v1h-7.2V13.3z"/>
	<path d="M182.7,13.2h1l4.5,9.9H187l-1.1-2.6h-5.3l-1.2,2.6h-1.1L182.7,13.2z M185.4,19.5l-2.2-5l-2.2,5H185.4z"/>
	<path d="M190.1,13.3h1.1v8.8h5.5v1h-6.6V13.3z"/>
	<path d="M198.8,13.3h7.1v1h-6v3.3h5.4v1h-5.4v3.4h6.1v1h-7.2V13.3z"/>
	<path d="M208.2,13.3h4.2c1.2,0,2.2,0.4,2.8,1c0.5,0.5,0.8,1.2,0.8,1.9v0c0,1.6-1.1,2.6-2.7,2.9l3,4h-1.4l-2.8-3.8h0h-2.8v3.8h-1.1
		V13.3z M212.3,18.3c1.5,0,2.5-0.8,2.5-2v0c0-1.2-0.9-1.9-2.5-1.9h-3v4H212.3z"/>
	<path d="M90.4,30.2L90.4,30.2c0-2.7,2-5.1,5-5.1c3,0,5,2.3,5,5c0,0,0,0,0,0c0,2.7-2,5.1-5,5.1C92.4,35.2,90.4,32.9,90.4,30.2z
		 M99.2,30.2L99.2,30.2c0-2.3-1.6-4.1-3.9-4.1s-3.8,1.8-3.8,4v0c0,2.2,1.6,4,3.9,4S99.2,32.4,99.2,30.2z"/>
	<path d="M102.7,25.3h7v1h-5.9v3.5h5.3v1h-5.3v4.3h-1.1V25.3z"/>
	<path d="M119.2,31.2l-4.1-5.9h1.3l3.3,4.9l3.3-4.9h1.3l-4.1,5.9v3.9h-1.1V31.2z"/>
	<path d="M124.9,30.2L124.9,30.2c0-2.7,2-5.1,5-5.1c3,0,5,2.3,5,5c0,0,0,0,0,0c0,2.7-2,5.1-5,5.1C126.9,35.2,124.9,32.9,124.9,30.2z
		 M133.7,30.2L133.7,30.2c0-2.3-1.6-4.1-3.9-4.1s-3.8,1.8-3.8,4v0c0,2.2,1.6,4,3.9,4S133.7,32.4,133.7,30.2z"/>
	<path d="M137,31v-5.7h1.1v5.6c0,2.1,1.1,3.3,3,3.3c1.8,0,3-1.1,3-3.2v-5.7h1.1v5.6c0,2.9-1.6,4.3-4.1,4.3
		C138.7,35.2,137,33.7,137,31z"/>
	<path d="M147.8,25.3h4.2c1.2,0,2.2,0.4,2.8,1c0.5,0.5,0.8,1.2,0.8,1.9v0c0,1.6-1.1,2.6-2.7,2.9l3,4h-1.4l-2.8-3.8h0h-2.8v3.8h-1.1
		V25.3z M151.9,30.3c1.5,0,2.5-0.8,2.5-2v0c0-1.2-0.9-1.9-2.5-1.9h-3v4H151.9z"/>
	<path d="M162.1,25.3h3.4c3.1,0,5.2,2.1,5.2,4.9v0c0,2.8-2.1,4.9-5.2,4.9h-3.4V25.3z M165.5,34.1c2.5,0,4.1-1.7,4.1-3.9v0
		c0-2.2-1.6-3.9-4.1-3.9h-2.3v7.8H165.5z"/>
	<path d="M173.1,25.3h4.2c1.2,0,2.2,0.4,2.8,1c0.5,0.5,0.8,1.2,0.8,1.9v0c0,1.6-1.1,2.6-2.7,2.9l3,4h-1.4l-2.8-3.8h0h-2.8v3.8h-1.1
		V25.3z M177.2,30.3c1.5,0,2.5-0.8,2.5-2v0c0-1.2-0.9-1.9-2.5-1.9h-3v4H177.2z"/>
	<path d="M183.2,25.3h7.1v1h-6v3.3h5.4v1h-5.4v3.4h6.1v1h-7.2V25.3z"/>
	<path d="M196.2,25.2h1l4.5,9.9h-1.2l-1.1-2.6H194l-1.2,2.6h-1.1L196.2,25.2z M198.9,31.5l-2.2-5l-2.2,5H198.9z"/>
	<path d="M203.6,25.3h1.1l3.6,5.4l3.6-5.4h1.1v9.8h-1.1v-7.9l-3.6,5.3h-0.1l-3.6-5.2v7.9h-1.1V25.3z"/>
	<path d="M215.2,33.6l0.7-0.8c1,0.9,2,1.4,3.4,1.4c1.3,0,2.2-0.7,2.2-1.7v0c0-0.9-0.5-1.4-2.5-1.9c-2.3-0.5-3.3-1.2-3.3-2.8v0
		c0-1.5,1.4-2.7,3.2-2.7c1.4,0,2.5,0.4,3.4,1.2l-0.6,0.9c-0.9-0.7-1.8-1.1-2.8-1.1c-1.3,0-2.1,0.7-2.1,1.6v0c0,0.9,0.5,1.4,2.7,1.9
		c2.2,0.5,3.2,1.3,3.2,2.8v0c0,1.7-1.4,2.8-3.3,2.8C217.6,35.2,216.3,34.7,215.2,33.6z"/>
</g>
<g>
	<path d="M239.4,27.1l0.8-1c0.6,0.5,1.1,0.7,1.8,0.7c0.6,0,0.9-0.2,0.9-0.6v0c0-0.3-0.2-0.5-1.2-0.8c-1.2-0.3-2-0.7-2-1.9v0
		c0-1.1,0.9-1.9,2.1-1.9c0.9,0,1.7,0.3,2.3,0.8l-0.7,1c-0.5-0.4-1.1-0.6-1.6-0.6s-0.8,0.2-0.8,0.5v0c0,0.4,0.3,0.5,1.3,0.8
		c1.2,0.3,1.9,0.8,1.9,1.8v0c0,1.2-0.9,1.9-2.3,1.9C241.1,28.1,240.1,27.8,239.4,27.1z"/>
	<path d="M245.4,21.9h1.4v2.4h2.5v-2.4h1.4V28h-1.4v-2.5h-2.5V28h-1.4V21.9z"/>
	<path d="M251.8,24.9L251.8,24.9c0-1.8,1.4-3.2,3.3-3.2c1.9,0,3.3,1.4,3.3,3.2v0c0,1.7-1.4,3.2-3.3,3.2
		C253.2,28.1,251.8,26.7,251.8,24.9z M257,24.9L257,24.9c0-1.1-0.8-1.9-1.9-1.9s-1.8,0.9-1.8,1.9v0c0,1.1,0.8,1.9,1.9,1.9
		S257,26,257,24.9z"/>
	<path d="M259.6,21.9h2.5c1.5,0,2.4,0.9,2.4,2.1v0c0,1.4-1.1,2.2-2.5,2.2h-1V28h-1.4V21.9z M262,25c0.7,0,1.1-0.4,1.1-0.9v0
		c0-0.6-0.4-0.9-1.1-0.9h-1V25H262z"/>
	<path d="M268.1,21.9h1.2l2.9,3.8v-3.8h1.3V28h-1.1l-3-3.9V28h-1.3V21.9z"/>
	<path d="M274.7,24.9L274.7,24.9c0-1.8,1.4-3.2,3.3-3.2c1.9,0,3.3,1.4,3.3,3.2v0c0,1.7-1.4,3.2-3.3,3.2
		C276.1,28.1,274.7,26.7,274.7,24.9z M279.8,24.9L279.8,24.9c0-1.1-0.8-1.9-1.9-1.9s-1.8,0.9-1.8,1.9v0c0,1.1,0.8,1.9,1.9,1.9
		S279.8,26,279.8,24.9z"/>
	<path d="M281.6,21.9h1.4l1.3,4.2l1.4-4.2h1.2l1.4,4.2l1.3-4.2h1.4l-2.1,6.2h-1.2l-1.4-4l-1.4,4h-1.2L281.6,21.9z"/>
</g>
</svg>
